<svg xmlns="http://www.w3.org/2000/svg" width="241" height="53" viewBox="0 0 241 53" fill="none">
<path d="M56.3408 36.2954L59.0128 36.5893C58.9237 38.2281 58.327 39.4751 57.2225 40.3301C56.1359 41.1674 54.5861 41.586 52.5732 41.586C50.1149 41.586 48.3158 40.7933 47.1757 39.2079C46.3919 38.0856 46 36.2776 46 33.7837V29.8023C46 28.3416 46.1069 27.1748 46.3206 26.302C46.5522 25.4291 46.9352 24.6809 47.4696 24.0575C48.5919 22.7036 50.2931 22.0267 52.5732 22.0267C54.5149 22.0267 56.0112 22.4632 57.0622 23.336C58.131 24.1911 58.71 25.4469 58.799 27.1036L56.1537 27.3173C55.9043 25.34 54.7375 24.3514 52.6534 24.3514C51.2817 24.3514 50.302 24.7789 49.7141 25.634C49.1441 26.489 48.8591 27.9408 48.8591 29.9894V33.6233C48.8591 35.6719 49.1441 37.1237 49.7141 37.9788C50.302 38.8338 51.2817 39.2613 52.6534 39.2613C54.8444 39.2613 56.0736 38.2727 56.3408 36.2954Z" fill="#D9FFEE"/>
<path d="M63.019 22.2405H65.878V34.2646C65.878 35.8679 66.074 37.0168 66.4659 37.7116C67.0894 38.7447 68.176 39.2613 69.7258 39.2613C71.3824 39.2613 72.5047 38.6646 73.0925 37.4711C73.3954 36.812 73.5468 35.7432 73.5468 34.2646V22.2405H76.4059V34.2646C76.4059 35.6541 76.3168 36.714 76.1387 37.4443C75.9783 38.1747 75.6755 38.816 75.2302 39.3682C74.0901 40.8467 72.2553 41.586 69.7258 41.586C66.9825 41.586 65.0497 40.7399 63.9275 39.0476C63.589 38.5132 63.3485 37.9075 63.206 37.2306C63.0813 36.5359 63.019 35.5472 63.019 34.2646V22.2405Z" fill="#D9FFEE"/>
<path d="M81.3097 41.3188V22.2405H88.4974C90.3679 22.2405 91.7484 22.6235 92.6391 23.3895C93.6366 24.298 94.1354 25.5894 94.1354 27.2639C94.1354 29.0987 93.4496 30.4614 92.0779 31.3521L92.3452 31.5124C93.0221 31.9756 93.4852 32.4298 93.7346 32.8752C94.2334 33.7124 94.4828 34.7812 94.4828 36.0816C94.4828 38.0055 93.9127 39.4127 92.7727 40.3034C91.9354 40.9803 90.6261 41.3188 88.8448 41.3188H81.3097ZM84.142 30.3902H88.2837C89.2456 30.3902 89.967 30.1853 90.448 29.7756C91.018 29.2947 91.3031 28.5198 91.3031 27.4509C91.3031 25.5093 90.2966 24.5384 88.2837 24.5384H84.142V30.3902ZM84.142 39.0208H88.6577C90.6529 39.0208 91.6504 37.9699 91.6504 35.8679C91.6504 33.748 90.6529 32.6881 88.6577 32.6881H84.142V39.0208Z" fill="#D9FFEE"/>
<path d="M98.2422 41.3188V22.2405H109.679V24.5919H101.075V30.4971H108.396V32.8485H101.075V38.9674H109.759V41.3188H98.2422Z" fill="#D9FFEE"/>
<rect width="12.2468" height="13.3602" transform="matrix(-1.31134e-07 -1 -1 1.31134e-07 38.9671 25.607)" fill="#7FD6C1"/>
<rect width="13.3602" height="13.3602" transform="matrix(-1.31134e-07 -1 -1 1.31134e-07 38.9671 13.3602)" fill="#95F5CB"/>
<rect width="12.2468" height="13.3602" transform="matrix(1 -8.74228e-08 -8.74228e-08 -1 13.3602 38.9671)" fill="#57838B"/>
<rect width="12.2468" height="13.3602" transform="matrix(1 -8.74228e-08 -8.74228e-08 -1 13.3602 52.3273)" fill="#D9FFEE"/>
<rect width="12.2468" height="12.2468" transform="matrix(1 -8.74228e-08 -8.74228e-08 -1 13.3602 25.607)" fill="#D9FFEE"/>
<rect width="13.3602" height="13.3602" transform="matrix(1 -8.74228e-08 -8.74228e-08 -1 0 38.9671)" fill="#D9FFEE"/>
<path d="M124.661 36.8565L126.238 37.0435C126.149 38.4508 125.57 39.5553 124.501 40.3569C123.432 41.1585 122.007 41.5593 120.226 41.5593C117.874 41.5593 116.173 40.7399 115.122 39.101C114.374 37.9788 114 36.1796 114 33.7035V29.8825C114 28.404 114.107 27.2283 114.321 26.3554C114.534 25.4825 114.891 24.7344 115.389 24.1109C116.494 22.7214 118.115 22.0267 120.253 22.0267C121.98 22.0267 123.361 22.4364 124.394 23.2559C125.427 24.0575 125.989 25.1708 126.078 26.5959L124.528 26.7028C124.403 25.6696 123.967 24.868 123.219 24.2979C122.47 23.7279 121.491 23.4429 120.279 23.4429C118.658 23.4429 117.483 23.9595 116.752 24.9927C116.022 26.008 115.657 27.6469 115.657 29.9092V33.6501C115.657 35.9302 116.022 37.5869 116.752 38.62C117.483 39.6354 118.658 40.1431 120.279 40.1431C121.508 40.1431 122.506 39.8581 123.272 39.288C124.056 38.7002 124.519 37.8897 124.661 36.8565Z" fill="#95F5CB"/>
<path d="M130.828 34.1577V29.4015C130.828 26.9611 131.344 25.153 132.377 23.9773C133.571 22.6591 135.245 22 137.401 22C139.717 22 141.471 22.766 142.665 24.2979C143.52 25.4558 143.947 27.157 143.947 29.4015V34.1577C143.947 36.5982 143.431 38.4063 142.397 39.582C141.204 40.9002 139.538 41.5593 137.401 41.5593C135.067 41.5593 133.304 40.7933 132.11 39.2613C131.255 38.1034 130.828 36.4023 130.828 34.1577ZM142.291 33.9707V29.5886C142.291 27.54 141.899 26.0259 141.115 25.0461C140.295 23.9595 139.057 23.4162 137.401 23.4162C135.637 23.4162 134.319 24.0486 133.446 25.3133C132.805 26.2753 132.484 27.7003 132.484 29.5886V33.9707C132.484 36.0193 132.876 37.5334 133.66 38.5132C134.479 39.5998 135.726 40.1431 137.401 40.1431C139.182 40.1431 140.491 39.5107 141.329 38.246C141.97 37.284 142.291 35.8589 142.291 33.9707Z" fill="#95F5CB"/>
<path d="M149.257 41.3188V22.2405H150.887L157.193 35.3869L163.499 22.2405H165.129V41.3188H163.526V25.4736L157.728 37.4978H156.659L150.861 25.4736V41.3188H149.257Z" fill="#95F5CB"/>
<path d="M170.939 41.3188V22.2405H172.568L178.874 35.3869L185.18 22.2405H186.81V41.3188H185.207V25.4736L179.409 37.4978H178.34L172.542 25.4736V41.3188H170.939Z" fill="#95F5CB"/>
<path d="M192.165 34.1577V29.4015C192.165 26.9611 192.682 25.153 193.715 23.9773C194.909 22.6591 196.583 22 198.739 22C201.054 22 202.809 22.766 204.002 24.2979C204.857 25.4558 205.285 27.157 205.285 29.4015V34.1577C205.285 36.5982 204.768 38.4063 203.735 39.582C202.542 40.9002 200.876 41.5593 198.739 41.5593C196.405 41.5593 194.641 40.7933 193.448 39.2613C192.593 38.1034 192.165 36.4023 192.165 34.1577ZM203.628 33.9707V29.5886C203.628 27.54 203.236 26.0259 202.453 25.0461C201.633 23.9595 200.395 23.4162 198.739 23.4162C196.975 23.4162 195.657 24.0486 194.784 25.3133C194.143 26.2753 193.822 27.7003 193.822 29.5886V33.9707C193.822 36.0193 194.214 37.5334 194.998 38.5132C195.817 39.5998 197.064 40.1431 198.739 40.1431C200.52 40.1431 201.829 39.5107 202.666 38.246C203.308 37.284 203.628 35.8589 203.628 33.9707Z" fill="#95F5CB"/>
<path d="M210.595 41.3188V22.2405H212.198L222.379 38.4597V22.2405H224.009V41.3188H222.406L212.225 25.0996V41.3188H210.595Z" fill="#95F5CB"/>
<path d="M228.328 38.914L229.637 38.0589C230.492 39.4306 232.122 40.1164 234.527 40.1164C236.041 40.1164 237.217 39.7868 238.054 39.1277C238.891 38.4508 239.31 37.5156 239.31 36.3221C239.31 35.1286 238.882 34.2379 238.027 33.6501C237.653 33.365 237.297 33.1691 236.958 33.0622C236.638 32.9553 235.783 32.7238 234.393 32.3675C232.452 31.8865 231.053 31.2363 230.198 30.4169C229.343 29.5975 228.916 28.4841 228.916 27.0769C228.916 25.4915 229.414 24.2534 230.412 23.3627C231.427 22.4721 232.826 22.0267 234.607 22.0267C237.137 22.0267 238.9 22.7482 239.898 24.1911L238.588 25.0461C237.84 23.9595 236.504 23.4162 234.58 23.4162C233.316 23.4162 232.327 23.7368 231.614 24.3781C230.902 25.0016 230.546 25.8655 230.546 26.97C230.546 28.021 230.893 28.8493 231.588 29.455C232.282 30.0606 233.485 30.5683 235.195 30.978C236.495 31.2987 237.359 31.5392 237.787 31.6995C238.214 31.8598 238.668 32.1003 239.149 32.4209C240.343 33.2404 240.94 34.514 240.94 36.2419C240.94 37.9164 240.379 39.2168 239.256 40.1431C238.134 41.0694 236.549 41.5326 234.5 41.5326C231.525 41.5326 229.468 40.6597 228.328 38.914Z" fill="#95F5CB"/>
</svg>