<svg width="24" height="24" viewBox="0 0 24 24" fill="none" xmlns="http://www.w3.org/2000/svg">
<g id="icons">
<path id="Vector" d="M11 3L5 9H3C1.895 9 1 9.895 1 11V13C1 14.105 1.895 15 3 15H5L11 21V3ZM19.4844 3.51562L18.0703 4.92969C21.9842 8.84355 21.984 15.1575 18.0703 19.0703L19.4844 20.4844C24.1626 15.8072 24.1625 8.19376 19.4844 3.51562ZM16.6562 6.34375L15.2422 7.75781C17.5941 10.1097 17.5939 13.8913 15.2422 16.2422L16.6562 17.6562C19.7725 14.5411 19.7723 9.45984 16.6562 6.34375ZM13.8281 9.17188L12.4141 10.5859C13.2042 11.376 13.2042 12.624 12.4141 13.4141L13.8281 14.8301C15.382 13.2762 15.382 10.7258 13.8281 9.17188Z" fill="#5F9483"/>
</g>
</svg>
