<svg width="52" height="40" viewBox="0 0 52 40" fill="none" xmlns="http://www.w3.org/2000/svg">
<path d="M48 0H4C1.79 0 0 1.79 0 4V36C0 38.21 1.79 40 4 40H48C50.21 40 52 38.21 52 36V4C52 1.79 50.21 0 48 0ZM15.324 27.944C17.378 28.282 19.208 27.044 19.8 25.25C20.058 24.47 20.858 24 21.678 24C23.022 24 24.006 25.328 23.568 26.598C22.406 29.974 19.042 32.334 15.202 31.96C11.044 31.556 8 27.82 8 23.644V16.356C8 12.18 11.044 8.444 15.2 8.04C19.04 7.666 22.404 10.026 23.566 13.402C24.004 14.672 23.022 16 21.678 16C20.858 16 20.058 15.53 19.8 14.75C19.208 12.954 17.378 11.718 15.324 12.056C13.358 12.38 12 14.23 12 16.224V23.776C12 25.77 13.358 27.62 15.324 27.944ZM35.324 27.944C37.378 28.282 39.208 27.044 39.8 25.25C40.058 24.47 40.858 24 41.678 24C43.022 24 44.006 25.328 43.568 26.598C42.406 29.974 39.042 32.334 35.202 31.96C31.046 31.554 28.002 27.818 28.002 23.642V16.354C28.002 12.178 31.046 8.442 35.202 8.036C39.042 7.662 42.406 10.022 43.568 13.398C44.004 14.672 43.022 16 41.678 16C40.858 16 40.058 15.53 39.8 14.75C39.208 12.954 37.378 11.718 35.324 12.056C33.358 12.38 32 14.23 32 16.224V23.776C32 25.77 33.358 27.62 35.324 27.944Z" fill="#95F5CB"/>
</svg>
