<svg width="129" height="40" viewBox="0 0 129 40" fill="none" xmlns="http://www.w3.org/2000/svg">
<path d="M41.7339 12.7916L43.7132 13.0093C43.6472 14.2233 43.2052 15.1469 42.3871 15.7803C41.5822 16.4005 40.4342 16.7106 38.9431 16.7106C37.1222 16.7106 35.7895 16.1234 34.945 14.949C34.3644 14.1177 34.0741 12.7784 34.0741 10.9311V7.98194C34.0741 6.89993 34.1533 6.03564 34.3116 5.38907C34.4831 4.74251 34.7668 4.18831 35.1627 3.72648C35.994 2.72364 37.2541 2.22222 38.9431 2.22222C40.3814 2.22222 41.4898 2.5455 42.2683 3.19207C43.06 3.82544 43.4889 4.7557 43.5549 5.98286L41.5954 6.1412C41.4106 4.67653 40.5464 3.9442 39.0025 3.9442C37.9865 3.9442 37.2607 4.26088 36.8253 4.89425C36.4031 5.52762 36.1919 6.60304 36.1919 8.12049V10.8123C36.1919 12.3298 36.4031 13.4052 36.8253 14.0385C37.2607 14.6719 37.9865 14.9886 39.0025 14.9886C40.6255 14.9886 41.536 14.2563 41.7339 12.7916Z" fill="#D9FFEE"/>
<path d="M46.6807 2.38056H48.7986V11.2873C48.7986 12.4749 48.9437 13.326 49.234 13.8406C49.6958 14.6059 50.5008 14.9886 51.6487 14.9886C52.8759 14.9886 53.7072 14.5466 54.1426 13.6625C54.367 13.1743 54.4791 12.3825 54.4791 11.2873V2.38056H56.597V11.2873C56.597 12.3166 56.531 13.1017 56.399 13.6427C56.2803 14.1837 56.0559 14.6587 55.7261 15.0678C54.8816 16.163 53.5225 16.7106 51.6487 16.7106C49.6167 16.7106 48.185 16.0838 47.3537 14.8303C47.103 14.4344 46.9249 13.9858 46.8193 13.4843C46.7269 12.9697 46.6807 12.2374 46.6807 11.2873V2.38056Z" fill="#D9FFEE"/>
<path d="M60.2294 16.5126V2.38056H65.5537C66.9392 2.38056 67.9618 2.66426 68.6216 3.23166C69.3605 3.90461 69.73 4.86127 69.73 6.10162C69.73 7.46073 69.2219 8.47016 68.2059 9.12992L68.4038 9.24868C68.9053 9.59175 69.2483 9.92823 69.4331 10.2581C69.8025 10.8783 69.9873 11.67 69.9873 12.6333C69.9873 14.0583 69.565 15.1008 68.7205 15.7605C68.1003 16.2619 67.1305 16.5126 65.811 16.5126H60.2294ZM62.3274 8.41738H65.3953C66.1079 8.41738 66.6423 8.26563 66.9985 7.96214C67.4208 7.60587 67.6319 7.03188 67.6319 6.24017C67.6319 4.80189 66.8864 4.08275 65.3953 4.08275H62.3274V8.41738ZM62.3274 14.8105H65.6724C67.1503 14.8105 67.8892 14.0319 67.8892 12.4749C67.8892 10.9047 67.1503 10.1196 65.6724 10.1196H62.3274V14.8105Z" fill="#D9FFEE"/>
<path d="M72.772 16.5126V2.38056H81.2434V4.12233H74.8701V8.49655H80.2933V10.2383H74.8701V14.7709H81.3027V16.5126H72.772Z" fill="#D9FFEE"/>
<rect width="9.07172" height="9.89642" transform="matrix(-1.31134e-07 -1 -1 1.31134e-07 28.8645 18.9681)" fill="#7FD6C1"/>
<rect width="9.89642" height="9.89642" transform="matrix(-1.31134e-07 -1 -1 1.31134e-07 28.8645 9.89642)" fill="#95F5CB"/>
<rect width="9.07172" height="9.89642" transform="matrix(1 -8.74228e-08 -8.74228e-08 -1 9.89636 28.8645)" fill="#57838B"/>
<rect width="9.07172" height="9.89642" transform="matrix(1 -8.74228e-08 -8.74228e-08 -1 9.89636 38.761)" fill="#D9FFEE"/>
<rect width="9.07172" height="9.07171" transform="matrix(1 -8.74228e-08 -8.74228e-08 -1 9.89636 18.9681)" fill="#D9FFEE"/>
<rect width="9.89642" height="9.89642" transform="matrix(1 -8.74228e-08 -8.74228e-08 -1 0 28.8645)" fill="#D9FFEE"/>
<path d="M41.9714 32.4863L43.1392 32.6248C43.0732 33.6673 42.6444 34.4854 41.8527 35.0792C41.061 35.6729 40.0054 35.9698 38.6858 35.9698C36.9441 35.9698 35.6839 35.3629 34.9054 34.1489C34.3512 33.3176 34.0741 31.9849 34.0741 30.1507V27.3204C34.0741 26.2252 34.1533 25.3543 34.3116 24.7077C34.47 24.0611 34.7339 23.507 35.1033 23.0451C35.9214 22.0159 37.1222 21.5013 38.7056 21.5013C39.9856 21.5013 41.0082 21.8048 41.7735 22.4117C42.5388 23.0055 42.9545 23.8302 43.0205 24.8859L41.8725 24.965C41.7801 24.1997 41.4568 23.6059 40.9026 23.1837C40.3484 22.7614 39.6227 22.5503 38.7254 22.5503C37.5246 22.5503 36.6538 22.933 36.1128 23.6983C35.5718 24.4504 35.3013 25.6644 35.3013 27.3402V30.1112C35.3013 31.8001 35.5718 33.0273 36.1128 33.7926C36.6538 34.5448 37.5246 34.9208 38.7254 34.9208C39.6359 34.9208 40.3748 34.7097 40.9422 34.2874C41.5228 33.852 41.8659 33.2516 41.9714 32.4863Z" fill="#95F5CB"/>
<path d="M46.5389 30.4872V26.9641C46.5389 25.1564 46.9216 23.817 47.6869 22.9462C48.571 21.9697 49.8114 21.4815 51.408 21.4815C53.1234 21.4815 54.4231 22.0489 55.3072 23.1837C55.9405 24.0414 56.2572 25.3015 56.2572 26.9641V30.4872C56.2572 32.295 55.8746 33.6343 55.1092 34.5052C54.2252 35.4816 52.9914 35.9698 51.408 35.9698C49.6794 35.9698 48.3731 35.4024 47.489 34.2677C46.8556 33.41 46.5389 32.1498 46.5389 30.4872ZM55.0301 30.3487V27.1026C55.0301 25.5852 54.7398 24.4636 54.1592 23.7379C53.5522 22.933 52.6351 22.5305 51.408 22.5305C50.1017 22.5305 49.1252 22.9989 48.4786 23.9358C48.0036 24.6483 47.7661 25.704 47.7661 27.1026V30.3487C47.7661 31.8661 48.0564 32.9877 48.637 33.7135C49.244 34.5184 50.1676 34.9208 51.408 34.9208C52.7275 34.9208 53.6974 34.4524 54.3175 33.5155C54.7926 32.803 55.0301 31.7474 55.0301 30.3487Z" fill="#95F5CB"/>
<path d="M60.1907 35.7917V21.6596H61.3981L66.0692 31.3977L70.7403 21.6596H71.9477V35.7917H70.7601V24.0546L66.4651 32.9613H65.6733L61.3783 24.0546V35.7917H60.1907Z" fill="#95F5CB"/>
<path d="M76.2508 35.7917V21.6596H77.4581L82.1292 31.3977L86.8004 21.6596H88.0077V35.7917H86.8201V24.0546L82.5251 32.9613H81.7334L77.4383 24.0546V35.7917H76.2508Z" fill="#95F5CB"/>
<path d="M91.9743 30.4872V26.9641C91.9743 25.1564 92.357 23.817 93.1223 22.9462C94.0064 21.9697 95.2467 21.4815 96.8434 21.4815C98.5587 21.4815 99.8585 22.0489 100.743 23.1837C101.376 24.0414 101.693 25.3015 101.693 26.9641V30.4872C101.693 32.295 101.31 33.6343 100.545 34.5052C99.6605 35.4816 98.4268 35.9698 96.8434 35.9698C95.1148 35.9698 93.8085 35.4024 92.9244 34.2677C92.291 33.41 91.9743 32.1498 91.9743 30.4872ZM100.465 30.3487V27.1026C100.465 25.5852 100.175 24.4636 99.5946 23.7379C98.9876 22.933 98.0705 22.5305 96.8434 22.5305C95.537 22.5305 94.5606 22.9989 93.914 23.9358C93.439 24.6483 93.2015 25.704 93.2015 27.1026V30.3487C93.2015 31.8661 93.4918 32.9877 94.0724 33.7135C94.6794 34.5184 95.603 34.9208 96.8434 34.9208C98.1629 34.9208 99.1327 34.4524 99.7529 33.5155C100.228 32.803 100.465 31.7474 100.465 30.3487Z" fill="#95F5CB"/>
<path d="M105.626 35.7917V21.6596H106.814L114.355 33.6739V21.6596H115.562V35.7917H114.375L106.833 23.7775V35.7917H105.626Z" fill="#95F5CB"/>
<path d="M118.761 34.0103L119.731 33.377C120.365 34.393 121.572 34.901 123.353 34.901C124.475 34.901 125.346 34.6569 125.966 34.1687C126.586 33.6673 126.896 32.9745 126.896 32.0904C126.896 31.2064 126.579 30.5466 125.946 30.1112C125.669 29.9 125.405 29.7549 125.154 29.6757C124.917 29.5965 124.284 29.425 123.254 29.1611C121.816 28.8048 120.78 28.3232 120.147 27.7162C119.513 27.1092 119.197 26.2845 119.197 25.2421C119.197 24.0677 119.566 23.1507 120.305 22.4909C121.057 21.8312 122.093 21.5013 123.413 21.5013C125.286 21.5013 126.593 22.0357 127.332 23.1045L126.362 23.7379C125.808 22.933 124.818 22.5305 123.393 22.5305C122.456 22.5305 121.724 22.768 121.196 23.243C120.668 23.7049 120.404 24.3448 120.404 25.163C120.404 25.9415 120.661 26.555 121.176 27.0037C121.691 27.4523 122.581 27.8284 123.848 28.1319C124.811 28.3694 125.451 28.5475 125.768 28.6663C126.085 28.785 126.421 28.9632 126.777 29.2007C127.661 29.8077 128.104 30.7511 128.104 32.0311C128.104 33.2714 127.688 34.2347 126.857 34.9208C126.025 35.607 124.851 35.95 123.333 35.95C121.13 35.95 119.606 35.3035 118.761 34.0103Z" fill="#95F5CB"/>
</svg>
