<svg width="30" height="30" viewBox="0 0 30 30" fill="none" xmlns="http://www.w3.org/2000/svg">
<path d="M3 4C2.73479 4.00003 2.48045 4.10539 2.29292 4.29292C2.10539 4.48045 2.00003 4.73479 2 5V7.27734C1.40437 7.62361 1 8.26105 1 9V23.0449C1 24.1179 1.85478 24.9941 2.92578 25.0371C7.74075 25.2332 11.2091 26.1286 13.1621 26.7832C13.3156 27.1438 13.5716 27.4513 13.8983 27.6676C14.225 27.884 14.6081 27.9995 15 28C15.3922 27.9999 15.7757 27.8845 16.1028 27.6682C16.43 27.4518 16.6863 27.1441 16.8398 26.7832C18.7931 26.1287 22.2605 25.2345 27.0742 25.0391C28.1452 24.9951 29 24.1179 29 23.0449V9C29 8.26105 28.5956 7.62361 28 7.27734V5C28 4.73479 27.8946 4.48045 27.7071 4.29292C27.5195 4.10539 27.2652 4.00003 27 4C22.4259 4 19.3384 4.50754 17.3672 5.0332C15.77 5.45911 15.2944 5.78617 15 5.95312C14.7056 5.78617 14.23 5.45911 12.6328 5.0332C10.6616 4.50754 7.57407 4 3 4ZM4 6.05469C7.78199 6.13156 10.4986 6.53518 12.1172 6.9668C13.0972 7.22813 13.6526 7.44425 14 7.60352V23.5723C12.4377 23.0424 9.14496 22.1833 4 22.0605V6.05469ZM26 6.05469V22.0605C20.855 22.1833 17.5623 23.0424 16 23.5723V7.60352C16.3474 7.44425 16.9028 7.22813 17.8828 6.9668C19.5014 6.53518 22.218 6.13156 26 6.05469Z" fill="#28343C"/>
</svg>
