<svg width="30" height="30" viewBox="0 0 30 30" fill="none" xmlns="http://www.w3.org/2000/svg">
<path d="M15 3C8.373 3 3 8.373 3 15C3 21.627 8.373 27 15 27C21.627 27 27 21.627 27 15C27 8.373 21.627 3 15 3ZM15 5C15.552 5 16 5.448 16 6C16 6.552 15.552 7 15 7C14.448 7 14 6.552 14 6C14 5.448 14.448 5 15 5ZM6 16C5.448 16 5 15.552 5 15C5 14.448 5.448 14 6 14C6.552 14 7 14.448 7 15C7 15.552 6.552 16 6 16ZM9.343 22.071C8.952 22.462 8.319 22.462 7.929 22.071C7.538 21.68 7.538 21.047 7.929 20.657C8.32 20.266 8.953 20.266 9.343 20.657C9.734 21.047 9.734 21.681 9.343 22.071ZM9.343 9.343C8.952 9.734 8.319 9.734 7.929 9.343C7.538 8.952 7.538 8.319 7.929 7.929C8.32 7.538 8.953 7.538 9.343 7.929C9.734 8.319 9.734 8.953 9.343 9.343ZM13.586 16.414C12.805 15.633 12.805 14.367 13.586 13.586C14.077 13.095 18.063 10.226 20.958 8.161C21.539 7.747 22.254 8.462 21.839 9.042C19.774 11.937 16.905 15.923 16.414 16.414C15.633 17.195 14.367 17.195 13.586 16.414ZM22.071 22.071C21.68 22.462 21.047 22.462 20.657 22.071C20.267 21.68 20.266 21.047 20.657 20.657C21.048 20.266 21.681 20.266 22.071 20.657C22.462 21.047 22.462 21.681 22.071 22.071ZM24 16C23.448 16 23 15.552 23 15C23 14.448 23.448 14 24 14C24.552 14 25 14.448 25 15C25 15.552 24.552 16 24 16Z" fill="#28343C"/>
</svg>
