<svg width="30" height="30" viewBox="0 0 30 30" fill="none" xmlns="http://www.w3.org/2000/svg">
<path d="M15 2.0001C14.8675 1.99823 14.7359 2.02271 14.613 2.07212C14.49 2.12153 14.3781 2.1949 14.2837 2.28794C14.1893 2.38098 14.1144 2.49186 14.0632 2.61411C14.0121 2.73637 13.9858 2.86757 13.9858 3.0001C13.9858 3.13263 14.0121 3.26383 14.0632 3.38609C14.1144 3.50834 14.1893 3.61922 14.2837 3.71226C14.3781 3.8053 14.49 3.87867 14.613 3.92808C14.7359 3.97749 14.8675 4.00197 15 4.0001C19.9826 4.0001 24 8.01751 24 13.0001C23.9981 13.1326 24.0226 13.2642 24.072 13.3871C24.1214 13.5101 24.1948 13.622 24.2878 13.7164C24.3809 13.8108 24.4918 13.8857 24.614 13.9369C24.7363 13.988 24.8675 14.0143 25 14.0143C25.1325 14.0143 25.2637 13.988 25.386 13.9369C25.5082 13.8857 25.6191 13.8108 25.7122 13.7164C25.8052 13.622 25.8786 13.5101 25.928 13.3871C25.9774 13.2642 26.0019 13.1326 26 13.0001C26 6.93669 21.0634 2.0001 15 2.0001ZM15 6.0001C11.1457 6.0001 8 9.14577 8 13.0001C7.99813 13.1326 8.02261 13.2642 8.07202 13.3871C8.12143 13.5101 8.1948 13.622 8.28784 13.7164C8.38088 13.8108 8.49176 13.8857 8.61401 13.9369C8.73627 13.988 8.86748 14.0143 9 14.0143C9.13252 14.0143 9.26373 13.988 9.38599 13.9369C9.50824 13.8857 9.61912 13.8108 9.71216 13.7164C9.8052 13.622 9.87857 13.5101 9.92798 13.3871C9.97739 13.2642 10.0019 13.1326 10 13.0001C10 10.2264 12.2263 8.0001 15 8.0001C17.7737 8.0001 20 10.2264 20 13.0001C20 14.8334 19.5757 15.8625 19.1055 16.8028C18.6353 17.7432 18 18.6668 18 20.0001C18 21.6686 16.6685 23.0001 15 23.0001C14.8675 22.9982 14.7359 23.0227 14.613 23.0721C14.49 23.1215 14.3781 23.1949 14.2837 23.2879C14.1893 23.381 14.1144 23.4919 14.0632 23.6141C14.0121 23.7364 13.9858 23.8676 13.9858 24.0001C13.9858 24.1326 14.0121 24.2638 14.0632 24.3861C14.1144 24.5083 14.1893 24.6192 14.2837 24.7123C14.3781 24.8053 14.49 24.8787 14.613 24.9281C14.7359 24.9775 14.8675 25.002 15 25.0001C17.7495 25.0001 20 22.7496 20 20.0001C20 19.3334 20.3647 18.757 20.8945 17.6974C21.4243 16.6377 22 15.1668 22 13.0001C22 9.14577 18.8543 6.0001 15 6.0001ZM15 10.0001C13.355 10.0001 12 11.3551 12 13.0001C11.9981 13.1326 12.0226 13.2642 12.072 13.3871C12.1214 13.5101 12.1948 13.622 12.2878 13.7164C12.3809 13.8108 12.4918 13.8857 12.614 13.9369C12.7363 13.988 12.8675 14.0143 13 14.0143C13.1325 14.0143 13.2637 13.988 13.386 13.9369C13.5082 13.8857 13.6191 13.8108 13.7122 13.7164C13.8052 13.622 13.8786 13.5101 13.928 13.3871C13.9774 13.2642 14.0019 13.1326 14 13.0001C14 12.4351 14.435 12.0001 15 12.0001C15.565 12.0001 16 12.4351 16 13.0001C15.9981 13.1326 16.0226 13.2642 16.072 13.3871C16.1214 13.5101 16.1948 13.622 16.2878 13.7164C16.3809 13.8108 16.4918 13.8857 16.614 13.9369C16.7363 13.988 16.8675 14.0143 17 14.0143C17.1325 14.0143 17.2637 13.988 17.386 13.9369C17.5082 13.8857 17.6191 13.8108 17.7122 13.7164C17.8052 13.622 17.8786 13.5101 17.928 13.3871C17.9774 13.2642 18.0019 13.1326 18 13.0001C18 11.3551 16.645 10.0001 15 10.0001ZM14 16.0001C13.7348 16.0001 13.4804 16.1055 13.2929 16.293C13.1054 16.4805 13 16.7349 13 17.0001C13 17.2653 13.1054 17.5197 13.2929 17.7072C13.4804 17.8947 13.7348 18.0001 14 18.0001C14.2652 18.0001 14.5196 17.8947 14.7071 17.7072C14.8946 17.5197 15 17.2653 15 17.0001C15 16.7349 14.8946 16.4805 14.7071 16.293C14.5196 16.1055 14.2652 16.0001 14 16.0001ZM10 18.0001C9.74412 18.0001 9.48797 18.0976 9.29297 18.2931C8.90197 18.6841 8.90197 19.3171 9.29297 19.7071L11.293 21.7071C11.684 22.0981 12.317 22.0981 12.707 21.7071C13.098 21.3171 13.098 20.6831 12.707 20.2931L10.707 18.2931C10.5115 18.0976 10.2559 18.0001 10 18.0001ZM8 22.0001C7.73478 22.0001 7.48043 22.1055 7.29289 22.293C7.10536 22.4805 7 22.7349 7 23.0001C7 23.2653 7.10536 23.5197 7.29289 23.7072C7.48043 23.8947 7.73478 24.0001 8 24.0001C8.26522 24.0001 8.51957 23.8947 8.70711 23.7072C8.89464 23.5197 9 23.2653 9 23.0001C9 22.7349 8.89464 22.4805 8.70711 22.293C8.51957 22.1055 8.26522 22.0001 8 22.0001ZM5 25.0001C4.73478 25.0001 4.48043 25.1055 4.29289 25.293C4.10536 25.4805 4 25.7349 4 26.0001C4 26.2653 4.10536 26.5197 4.29289 26.7072C4.48043 26.8947 4.73478 27.0001 5 27.0001C5.26522 27.0001 5.51957 26.8947 5.70711 26.7072C5.89464 26.5197 6 26.2653 6 26.0001C6 25.7349 5.89464 25.4805 5.70711 25.293C5.51957 25.1055 5.26522 25.0001 5 25.0001Z" fill="#28343C"/>
</svg>
