<svg width="30" height="30" viewBox="0 0 30 30" fill="none" xmlns="http://www.w3.org/2000/svg">
<path d="M12.2363 4C11.4783 4 10.7863 4.42747 10.4473 5.10547L10.0527 5.89453C9.71373 6.57153 9.02067 7 8.26367 7H4C2.895 7 2 7.895 2 9V22C2 23.105 2.895 24 4 24H26C27.105 24 28 23.105 28 22V9C28 7.895 27.105 7 26 7H21.7363C20.9783 7 20.2863 6.57253 19.9473 5.89453L19.5527 5.10547C19.2137 4.42847 18.5207 4 17.7637 4H12.2363ZM6 5C5.448 5 5 5.448 5 6H8C8 5.448 7.552 5 7 5H6ZM15 8C18.86 8 22 11.14 22 15C22 18.86 18.86 22 15 22C11.14 22 8 18.86 8 15C8 11.14 11.14 8 15 8ZM24 9C24.552 9 25 9.448 25 10C25 10.552 24.552 11 24 11C23.448 11 23 10.552 23 10C23 9.448 23.448 9 24 9ZM15 10C13.6739 10 12.4021 10.5268 11.4645 11.4645C10.5268 12.4021 10 13.6739 10 15C10 16.3261 10.5268 17.5979 11.4645 18.5355C12.4021 19.4732 13.6739 20 15 20C16.3261 20 17.5979 19.4732 18.5355 18.5355C19.4732 17.5979 20 16.3261 20 15C20 13.6739 19.4732 12.4021 18.5355 11.4645C17.5979 10.5268 16.3261 10 15 10Z" fill="#28343C"/>
</svg>
