<svg width="30" height="30" viewBox="0 0 30 30" fill="none" xmlns="http://www.w3.org/2000/svg">
<path d="M5 4C3.895 4 3 4.895 3 6C3 7.105 3.895 8 5 8H6V10L8 8H14C15.105 8 16 7.105 16 6C16 4.895 15.105 4 14 4H5ZM17.4434 4C17.7874 4.591 18 5.268 18 6C18 6.732 17.7874 7.409 17.4434 8H22L24 10V8H25C26.105 8 27 7.105 27 6C27 4.895 26.105 4 25 4H17.4434ZM9 11.002C6.577 11.002 4.61133 12.4603 4.61133 15.0723C4.61133 16.1763 5.23242 17.0371 5.23242 17.0371C5.23242 17.0371 4.94922 17.1737 4.94922 17.7637C4.94922 18.9097 5.68555 19.1836 5.68555 19.1836C5.76455 19.8796 6.609 20.8187 7 21.2207V22.3457C6.068 23.7707 3.954 23.525 3 26H15C14.046 23.525 11.932 23.7697 11 22.3457V21.2227C11.391 20.8207 12.2355 19.8805 12.3145 19.1855C12.3145 19.1855 13.0508 18.6766 13.0508 17.7656C13.0508 17.1336 12.7676 17.0371 12.7676 17.0371C12.7676 17.0371 13.2754 16.0762 13.2754 15.1582C13.2754 13.3182 12.3518 11.9023 10.8008 11.9023C10.8008 11.9023 10.141 11.002 9 11.002ZM21 11.002C18.577 11.002 16.6113 12.4603 16.6113 15.0723C16.6113 16.1763 17.2324 17.0371 17.2324 17.0371C17.2324 17.0371 16.9492 17.1737 16.9492 17.7637C16.9492 18.9097 17.6855 19.1836 17.6855 19.1836C17.7645 19.8796 18.609 20.8187 19 21.2207V22.3457C18.394 23.2717 17.2891 23.4948 16.3281 24.2148C16.5241 24.5308 16.7092 24.8753 16.8652 25.2793L17.1445 26H27C26.046 23.525 23.932 23.7697 23 22.3457V21.2227C23.391 20.8207 24.2355 19.8805 24.3145 19.1855C24.3145 19.1855 25.0508 18.6766 25.0508 17.7656C25.0508 17.1336 24.7676 17.0371 24.7676 17.0371C24.7676 17.0371 25.2754 16.0762 25.2754 15.1582C25.2754 13.3182 24.3518 11.9023 22.8008 11.9023C22.8008 11.9023 22.141 11.002 21 11.002Z" fill="#28343C"/>
</svg>
