<svg width="30" height="30" viewBox="0 0 30 30" fill="none" xmlns="http://www.w3.org/2000/svg">
<path d="M15 3C8.38453 3 3 8.38453 3 15C3 21.6155 8.38453 27 15 27C17.5549 27 19.9167 26.1814 21.8535 24.8184C22.0706 24.6658 22.2181 24.4333 22.2637 24.1719C22.3093 23.9106 22.2492 23.6418 22.0967 23.4248C21.9441 23.2078 21.7116 23.0602 21.4503 23.0146C21.1889 22.969 20.9202 23.0291 20.7031 23.1816C19.0819 24.3226 17.1291 25 15 25C9.46547 25 5 20.5345 5 15C5 9.46547 9.46547 5 15 5C17.1291 5 19.0819 5.67742 20.7031 6.81836C20.8106 6.8939 20.9319 6.94752 21.0601 6.97618C21.1883 7.00484 21.3209 7.00797 21.4503 6.98539C21.5797 6.96281 21.7034 6.91497 21.8143 6.84458C21.9252 6.7742 22.0211 6.68266 22.0967 6.5752C22.1722 6.46773 22.2258 6.34643 22.2545 6.21824C22.2832 6.09004 22.2863 5.95746 22.2637 5.82806C22.2411 5.69865 22.1933 5.57496 22.1229 5.46405C22.0525 5.35314 21.961 5.25718 21.8535 5.18164C19.9167 3.81858 17.5549 3 15 3ZM22.9902 9.99023C22.7913 9.99029 22.5969 10.0497 22.4319 10.1608C22.2669 10.2719 22.1388 10.4297 22.0639 10.614C21.989 10.7983 21.9709 11.0008 22.0117 11.1955C22.0525 11.3902 22.1504 11.5683 22.293 11.707L24.5859 14H14C13.8675 13.9981 13.7359 14.0226 13.613 14.072C13.49 14.1214 13.3781 14.1948 13.2837 14.2878C13.1893 14.3809 13.1144 14.4918 13.0632 14.614C13.0121 14.7363 12.9858 14.8675 12.9858 15C12.9858 15.1325 13.0121 15.2637 13.0632 15.386C13.1144 15.5082 13.1893 15.6191 13.2837 15.7122C13.3781 15.8052 13.49 15.8786 13.613 15.928C13.7359 15.9774 13.8675 16.0019 14 16H24.5859L22.293 18.293C22.197 18.3851 22.1204 18.4955 22.0676 18.6176C22.0148 18.7397 21.9869 18.8712 21.9856 19.0042C21.9842 19.1373 22.0094 19.2692 22.0597 19.3924C22.11 19.5156 22.1843 19.6275 22.2784 19.7216C22.3725 19.8157 22.4844 19.89 22.6076 19.9403C22.7308 19.9906 22.8627 20.0158 22.9958 20.0144C23.1288 20.0131 23.2603 19.9852 23.3824 19.9324C23.5045 19.8796 23.6149 19.803 23.707 19.707L27.6191 15.7949C27.7417 15.7015 27.8409 15.581 27.9092 15.4428C27.9774 15.3047 28.0129 15.1526 28.0127 14.9985C28.0125 14.8445 27.9767 14.6925 27.9081 14.5545C27.8395 14.4165 27.7399 14.2963 27.6172 14.2031L23.707 10.293C23.6138 10.1972 23.5024 10.121 23.3793 10.069C23.2562 10.017 23.1239 9.99024 22.9902 9.99023Z" fill="#28343C"/>
</svg>
