<svg width="30" height="30" viewBox="0 0 30 30" fill="none" xmlns="http://www.w3.org/2000/svg">
<path d="M26 5H4C2.895 5 2 5.895 2 7V23C2 24.105 2.895 25 4 25H26C27.105 25 28 24.105 28 23V7C28 5.895 27.105 5 26 5ZM9.662 18.972C10.689 19.141 11.604 18.522 11.9 17.625C12.029 17.235 12.429 17 12.839 17C13.511 17 14.003 17.664 13.784 18.299C13.203 19.987 11.521 21.167 9.601 20.98C7.522 20.778 6 18.91 6 16.822V13.178C6 11.09 7.522 9.222 9.6 9.02C11.52 8.833 13.202 10.013 13.783 11.701C14.002 12.336 13.511 13 12.839 13C12.429 13 12.029 12.765 11.9 12.375C11.604 11.477 10.689 10.859 9.662 11.028C8.679 11.19 8 12.115 8 13.112V16.888C8 17.885 8.679 18.81 9.662 18.972ZM19.662 18.972C20.689 19.141 21.604 18.522 21.9 17.625C22.029 17.235 22.429 17 22.839 17C23.511 17 24.003 17.664 23.784 18.299C23.203 19.987 21.521 21.167 19.601 20.98C17.523 20.777 16.001 18.909 16.001 16.821V13.177C16.001 11.089 17.523 9.221 19.601 9.018C21.521 8.831 23.203 10.011 23.784 11.699C24.002 12.336 23.511 13 22.839 13C22.429 13 22.029 12.765 21.9 12.375C21.604 11.477 20.689 10.859 19.662 11.028C18.679 11.19 18 12.115 18 13.112V16.888C18 17.885 18.679 18.81 19.662 18.972Z" fill="#28343C"/>
</svg>
