<svg width="30" height="30" viewBox="0 0 30 30" fill="none" xmlns="http://www.w3.org/2000/svg">
<path d="M24 4H6C4.895 4 4 4.895 4 6V24C4 25.105 4.895 26 6 26H24C25.105 26 26 25.105 26 24V6C26 4.895 25.105 4 24 4ZM9 16C8.448 16 8 15.552 8 15C8 14.448 8.448 14 9 14C9.552 14 10 14.448 10 15C10 15.552 9.552 16 9 16ZM21 16H13C12.448 16 12 15.552 12 15C12 14.448 12.448 14 13 14H21C21.552 14 22 14.448 22 15C22 15.552 21.552 16 21 16ZM9 10C8.448 10 8 9.552 8 9C8 8.448 8.448 8 9 8C9.552 8 10 8.448 10 9C10 9.552 9.552 10 9 10ZM21 10H13C12.448 10 12 9.552 12 9C12 8.448 12.448 8 13 8H21C21.552 8 22 8.448 22 9C22 9.552 21.552 10 21 10ZM9 22C8.448 22 8 21.552 8 21C8 20.448 8.448 20 9 20C9.552 20 10 20.448 10 21C10 21.552 9.552 22 9 22ZM21 22H13C12.448 22 12 21.552 12 21C12 20.448 12.448 20 13 20H21C21.552 20 22 20.448 22 21C22 21.552 21.552 22 21 22Z" fill="#28343C"/>
</svg>
