<svg width="30" height="30" viewBox="0 0 30 30" fill="none" xmlns="http://www.w3.org/2000/svg">
<path d="M5 4.00001C4.86749 3.99813 4.73593 4.02262 4.61296 4.07203C4.48999 4.12144 4.37807 4.1948 4.2837 4.28785C4.18933 4.38089 4.11439 4.49177 4.06324 4.61402C4.0121 4.73628 3.98576 4.86748 3.98576 5.00001C3.98576 5.13253 4.0121 5.26374 4.06324 5.38599C4.11439 5.50825 4.18933 5.61912 4.2837 5.71217C4.37807 5.80521 4.48999 5.87857 4.61296 5.92799C4.73593 5.9774 4.86749 6.00188 5 6.00001H25C25.1325 6.00188 25.2641 5.9774 25.387 5.92799C25.51 5.87857 25.6219 5.80521 25.7163 5.71217C25.8107 5.61912 25.8856 5.50825 25.9368 5.38599C25.9879 5.26374 26.0142 5.13253 26.0142 5.00001C26.0142 4.86748 25.9879 4.73628 25.9368 4.61402C25.8856 4.49177 25.8107 4.38089 25.7163 4.28785C25.6219 4.1948 25.51 4.12144 25.387 4.07203C25.2641 4.02262 25.1325 3.99813 25 4.00001H5ZM4 8.00001C2.9 8.00001 2 8.90001 2 10V23C2 24.1 2.9 25 4 25H10C10.7 25 11.3992 24.6 11.6992 24L13.3008 21C13.6008 20.4 14.3 20 15 20C15.7 20 16.3992 20.4 16.6992 21L18.3008 24C18.6008 24.6 19.3 25 20 25H26C27.1 25 28 24.1 28 23V10C28 8.90001 27.1 8.00001 26 8.00001H4ZM9 13C10.7 13 12 14.3 12 16C12 17.7 10.7 19 9 19C7.3 19 6 17.7 6 16C6 14.3 7.3 13 9 13ZM21 13C22.7 13 24 14.3 24 16C24 17.7 22.7 19 21 19C19.3 19 18 17.7 18 16C18 14.3 19.3 13 21 13Z" fill="#28343C"/>
</svg>
