<svg width="31" height="30" viewBox="0 0 31 30" fill="none" xmlns="http://www.w3.org/2000/svg">
<path d="M26.4805 2.99024C26.4432 2.99142 26.406 2.99468 26.3691 3H20.5C20.3675 2.99813 20.2359 3.02261 20.113 3.07203C19.99 3.12144 19.8781 3.1948 19.7837 3.28784C19.6893 3.38089 19.6144 3.49176 19.5632 3.61402C19.5121 3.73628 19.4858 3.86748 19.4858 4C19.4858 4.13253 19.5121 4.26373 19.5632 4.38599C19.6144 4.50825 19.6893 4.61912 19.7837 4.71216C19.8781 4.80521 19.99 4.87857 20.113 4.92798C20.2359 4.9774 20.3675 5.00188 20.5 5H24.0859L13.793 15.293C13.697 15.3851 13.6204 15.4955 13.5676 15.6176C13.5148 15.7397 13.4869 15.8712 13.4856 16.0042C13.4842 16.1373 13.5094 16.2692 13.5597 16.3924C13.61 16.5156 13.6843 16.6275 13.7784 16.7216C13.8725 16.8157 13.9844 16.89 14.1076 16.9403C14.2308 16.9906 14.3627 17.0158 14.4958 17.0144C14.6288 17.0131 14.7603 16.9852 14.8824 16.9324C15.0045 16.8796 15.1149 16.803 15.207 16.707L25.5 6.41407V10C25.4981 10.1325 25.5226 10.2641 25.572 10.387C25.6214 10.51 25.6948 10.6219 25.7878 10.7163C25.8809 10.8107 25.9918 10.8856 26.114 10.9368C26.2363 10.9879 26.3675 11.0142 26.5 11.0142C26.6325 11.0142 26.7637 10.9879 26.886 10.9368C27.0082 10.8856 27.1191 10.8107 27.2122 10.7163C27.3052 10.6219 27.3786 10.51 27.428 10.387C27.4774 10.2641 27.5019 10.1325 27.5 10V4.12696C27.5199 3.98298 27.5082 3.8364 27.4657 3.69741C27.4232 3.55842 27.3509 3.43036 27.2538 3.32216C27.1568 3.21396 27.0373 3.12822 26.9038 3.07089C26.7702 3.01357 26.6258 2.98604 26.4805 2.99024ZM6.5 7C5.40694 7 4.5 7.90694 4.5 9V24C4.5 25.0931 5.40694 26 6.5 26H21.5C22.5931 26 23.5 25.0931 23.5 24V14V11.4219L21.5 13.4219V16V24H6.5V9H14.5H16.5H17.0781L19.0781 7H16.5H14.5H6.5Z" fill="#2F4048"/>
</svg>
