<svg width="30" height="30" viewBox="0 0 30 30" fill="none" xmlns="http://www.w3.org/2000/svg">
<path d="M7.00028 4.00028C6.74441 4.00028 6.48825 4.09775 6.29325 4.29325L4.29325 6.29325C3.90225 6.68425 3.90225 7.31731 4.29325 7.70731L11.5862 15.0003L4.29325 22.2932C3.90225 22.6842 3.90225 23.3173 4.29325 23.7073L6.29325 25.7073C6.68425 26.0983 7.31731 26.0983 7.70731 25.7073L15.0003 18.4143L22.2932 25.7073C22.6832 26.0983 23.3173 26.0983 23.7073 25.7073L25.7073 23.7073C26.0983 23.3163 26.0983 22.6832 25.7073 22.2932L18.4143 15.0003L25.7073 7.70731C26.0983 7.31731 26.0983 6.68325 25.7073 6.29325L23.7073 4.29325C23.3163 3.90225 22.6832 3.90225 22.2932 4.29325L15.0003 11.5862L7.70731 4.29325C7.51181 4.09775 7.25616 4.00028 7.00028 4.00028Z" fill="#28343C"/>
</svg>
