<svg width="30" height="30" viewBox="0 0 30 30" fill="none" xmlns="http://www.w3.org/2000/svg">
<path d="M20.0371 5.64648C19.8467 5.64234 19.659 5.69268 19.4962 5.79157C19.3334 5.89046 19.2022 6.03379 19.1181 6.20469C19.034 6.3756 19.0004 6.56697 19.0214 6.7563C19.0423 6.94563 19.1169 7.12504 19.2363 7.27343C20.9634 9.48322 22 12.2438 22 15.2559C22 18.0551 21.1058 20.6369 19.5938 22.7637C19.5115 22.8703 19.4517 22.9923 19.4178 23.1226C19.3839 23.2529 19.3767 23.3886 19.3965 23.5218C19.4164 23.6549 19.4629 23.7827 19.5332 23.8974C19.6036 24.0121 19.6965 24.1115 19.8062 24.1895C19.9159 24.2675 20.0402 24.3225 20.1717 24.3513C20.3032 24.3801 20.4391 24.3821 20.5714 24.3571C20.7036 24.3321 20.8295 24.2807 20.9414 24.2059C21.0533 24.1311 21.149 24.0345 21.2227 23.9219C22.9626 21.4746 24 18.4826 24 15.2559C24 11.784 22.7994 8.58517 20.8125 6.04296C20.7215 5.92269 20.6045 5.82455 20.4702 5.75589C20.3359 5.68723 20.1879 5.64982 20.0371 5.64648ZM11 6.99999L6.79297 11H3C1.343 11 0 12.343 0 14V16C0 17.657 1.343 19 3 19H6.79297L11 23V6.99999ZM14.7383 8.59179C14.5396 8.58754 14.3442 8.64255 14.177 8.7498C14.0097 8.85706 13.8782 9.01171 13.7992 9.19401C13.7202 9.37632 13.6973 9.57802 13.7334 9.7734C13.7695 9.96878 13.863 10.149 14.002 10.291C15.2395 11.5875 16 13.3281 16 15.2559C16 16.979 15.3926 18.5538 14.3809 19.7969C14.2931 19.8981 14.2265 20.0159 14.1852 20.1433C14.1438 20.2708 14.1285 20.4052 14.1401 20.5387C14.1517 20.6722 14.19 20.802 14.2527 20.9203C14.3155 21.0387 14.4013 21.1433 14.5053 21.2278C14.6092 21.3124 14.7291 21.3752 14.8577 21.4125C14.9864 21.4499 15.1212 21.461 15.2543 21.4452C15.3873 21.4294 15.5159 21.3871 15.6322 21.3206C15.7486 21.2542 15.8504 21.1651 15.9316 21.0586C17.2199 19.4757 18 17.4507 18 15.2559C18 12.7996 17.0237 10.5597 15.4492 8.91015C15.358 8.81222 15.2481 8.73359 15.126 8.67891C15.0039 8.62422 14.8721 8.5946 14.7383 8.59179Z" fill="#28343C"/>
</svg>
