<svg width="30" height="30" viewBox="0 0 30 30" fill="none" xmlns="http://www.w3.org/2000/svg">
<path d="M8.99609 1.98633C8.79945 1.98804 8.60767 2.04768 8.44475 2.1578C8.28182 2.26793 8.15498 2.42364 8.08008 2.60547L5.23047 9.25781L5 9.33398V4C5.00183 3.86621 4.9768 3.73341 4.92638 3.60947C4.87597 3.48553 4.80119 3.37297 4.70649 3.27845C4.61179 3.18392 4.49908 3.10937 4.37504 3.05919C4.25101 3.00901 4.11816 2.98424 3.98438 2.98633C3.7195 2.99047 3.46709 3.09953 3.28254 3.28957C3.09799 3.47961 2.99637 3.73511 3 4V10L2 11H1V17L6.20898 18.834C6.45861 18.9426 6.72778 18.9991 7 19C7.14254 18.9995 7.28463 18.9838 7.42383 18.9531L11.3965 18.127C11.7875 18.046 12.1396 17.8324 12.3926 17.5234L14.666 14.748L14.707 14.707C14.8915 14.5234 14.9971 14.2751 15.0014 14.0149C15.0058 13.7547 14.9085 13.503 14.7303 13.3134C14.5521 13.1237 14.3069 13.011 14.047 12.9992C13.787 12.9873 13.5326 13.0773 13.3379 13.25L11 15H10C8.88333 15 8 14.1167 8 13C8 11.8833 8.88333 11 10 11H12.1484L14.375 12.7812C14.4776 12.8634 14.5954 12.9245 14.7216 12.9611C14.8478 12.9977 14.98 13.009 15.1106 12.9946C15.2412 12.9801 15.3676 12.94 15.4828 12.8766C15.5979 12.8132 15.6994 12.7278 15.7815 12.6252C15.8636 12.5226 15.9246 12.4048 15.9612 12.2786C15.9978 12.1523 16.0091 12.0202 15.9946 11.8895C15.98 11.7589 15.9399 11.6325 15.8765 11.5174C15.8131 11.4023 15.7276 11.3008 15.625 11.2187L13.125 9.21875C12.9476 9.07698 12.7271 8.99983 12.5 9H10.123L14.582 5.81445C14.7551 5.69485 14.886 5.52373 14.9562 5.32543C15.0264 5.12713 15.0323 4.91175 14.973 4.70992C14.9137 4.50809 14.7923 4.33009 14.626 4.20123C14.4598 4.07237 14.2571 3.99922 14.0469 3.99218C13.8214 3.98386 13.5998 4.052 13.418 4.18554L7.88867 8.13476L9.91992 3.39453C9.98837 3.24141 10.0172 3.07353 10.0038 2.90634C9.99037 2.73915 9.93512 2.57802 9.84312 2.43778C9.75111 2.29754 9.62532 2.18269 9.4773 2.1038C9.32929 2.02491 9.16381 1.98451 8.99609 1.98633ZM23 11C22.8575 11.0005 22.7154 11.0162 22.5762 11.0469C22.5716 11.0475 22.5671 11.0482 22.5625 11.0488L18.6035 11.873C18.2125 11.954 17.8604 12.1676 17.6074 12.4766L15.334 15.252L15.293 15.293C15.1085 15.4766 15.0029 15.7249 14.9986 15.9851C14.9942 16.2453 15.0915 16.497 15.2697 16.6866C15.4479 16.8763 15.6931 16.989 15.953 17.0008C16.213 17.0127 16.4674 16.9227 16.6621 16.75L19 15H20C21.1167 15 22 15.8833 22 17C22 18.1167 21.1167 19 20 19H17.8516L15.625 17.2187C15.5224 17.1366 15.4046 17.0755 15.2784 17.0389C15.1522 17.0023 15.02 16.9909 14.8894 17.0054C14.7588 17.0199 14.6324 17.06 14.5172 17.1234C14.4021 17.1868 14.3006 17.2722 14.2185 17.3748C14.1364 17.4774 14.0754 17.5952 14.0388 17.7214C14.0022 17.8477 13.9909 17.9798 14.0054 18.1104C14.02 18.2411 14.0601 18.3675 14.1235 18.4826C14.1869 18.5977 14.2724 18.6992 14.375 18.7812L16.875 20.7812C17.0525 20.923 17.2729 21.0002 17.5 21H19.877L15.418 24.1855C15.202 24.3399 15.0561 24.5738 15.0125 24.8357C14.9689 25.0975 15.0312 25.366 15.1855 25.582C15.3399 25.798 15.5738 25.9439 15.8357 25.9875C16.0975 26.031 16.366 25.9688 16.582 25.8145L22.1113 21.8652L20.0801 26.6055C20.0283 26.7263 20.0008 26.8561 19.9991 26.9875C19.9975 27.119 20.0218 27.2494 20.0705 27.3715C20.1691 27.618 20.3615 27.8153 20.6055 27.9199C20.8494 28.0246 21.125 28.028 21.3715 27.9295C21.618 27.8309 21.8153 27.6385 21.9199 27.3945L24.7715 20.7422L25 20.666V26C24.9981 26.1325 25.0226 26.2641 25.072 26.387C25.1214 26.51 25.1948 26.6219 25.2878 26.7163C25.3809 26.8107 25.4918 26.8856 25.614 26.9368C25.7363 26.9879 25.8675 27.0142 26 27.0142C26.1325 27.0142 26.2637 26.9879 26.386 26.9368C26.5082 26.8856 26.6191 26.8107 26.7122 26.7163C26.8052 26.6219 26.8786 26.51 26.928 26.387C26.9774 26.2641 27.0019 26.1325 27 26V20L28 19H29V13L23.791 11.166C23.5414 11.0574 23.2722 11.0009 23 11Z" fill="#28343C"/>
</svg>
