<svg width="20" height="20" viewBox="0 0 20 20" fill="none" xmlns="http://www.w3.org/2000/svg">
<g id="icons">
<path id="Vector" d="M8.3335 1.66669L7.50016 2.50002H4.16683C3.66683 2.50002 3.3335 2.83335 3.3335 3.33335C3.3335 3.83335 3.66683 4.16669 4.16683 4.16669H5.8335H14.1668H15.8335C16.3335 4.16669 16.6668 3.83335 16.6668 3.33335C16.6668 2.83335 16.3335 2.50002 15.8335 2.50002H12.5002L11.6668 1.66669H8.3335ZM4.16683 5.83335V16.6667C4.16683 17.5834 4.91683 18.3334 5.8335 18.3334H14.1668C15.0835 18.3334 15.8335 17.5834 15.8335 16.6667V5.83335H4.16683ZM7.50016 7.50002C8.00016 7.50002 8.3335 7.83335 8.3335 8.33335V15.8334C8.3335 16.3334 8.00016 16.6667 7.50016 16.6667C7.00016 16.6667 6.66683 16.3334 6.66683 15.8334V8.33335C6.66683 7.83335 7.00016 7.50002 7.50016 7.50002ZM12.5002 7.50002C13.0002 7.50002 13.3335 7.83335 13.3335 8.33335V15.8334C13.3335 16.3334 13.0002 16.6667 12.5002 16.6667C12.0002 16.6667 11.6668 16.3334 11.6668 15.8334V8.33335C11.6668 7.83335 12.0002 7.50002 12.5002 7.50002Z" fill="#28343C"/>
</g>
</svg>
