<svg width="411" height="82" viewBox="0 0 411 82" fill="none" xmlns="http://www.w3.org/2000/svg">
<rect width="9.3617" height="10.2128" transform="matrix(-1.31134e-07 -1 -1 1.31134e-07 29.7874 60.5747)" fill="#7FD6C1"/>
<rect width="10.2128" height="10.2128" transform="matrix(-1.31134e-07 -1 -1 1.31134e-07 29.7874 51.2129)" fill="#95F5CB"/>
<rect width="9.3617" height="10.2128" transform="matrix(1 -8.74228e-08 -8.74228e-08 -1 10.2126 70.7871)" fill="#57838B"/>
<rect width="9.3617" height="10.2128" transform="matrix(1 -8.74228e-08 -8.74228e-08 -1 10.2126 81)" fill="#F5FFFA"/>
<rect width="9.3617" height="9.3617" transform="matrix(1 -8.74228e-08 -8.74228e-08 -1 10.2126 60.5747)" fill="#F5FFFA"/>
<rect width="10.2128" height="10.2128" transform="matrix(1 -8.74228e-08 -8.74228e-08 -1 0 70.7871)" fill="#F5FFFA"/>
<line x1="51.2871" y1="45" x2="51.2871" y2="77" stroke="#57838B"/>
<path d="M124.773 48.0476C124.705 47.4719 124.428 47.0249 123.943 46.7067C123.458 46.3885 122.864 46.2294 122.159 46.2294C121.644 46.2294 121.193 46.3128 120.807 46.4794C120.424 46.6461 120.125 46.8753 119.909 47.1669C119.697 47.4586 119.591 47.7901 119.591 48.1613C119.591 48.4719 119.665 48.7389 119.812 48.9624C119.964 49.1821 120.157 49.3658 120.392 49.5135C120.627 49.6575 120.873 49.7768 121.131 49.8715C121.388 49.9624 121.625 50.0363 121.841 50.0931L123.023 50.4113C123.326 50.4908 123.663 50.6007 124.034 50.7408C124.409 50.881 124.767 51.0723 125.108 51.3147C125.453 51.5533 125.737 51.8601 125.96 52.2351C126.184 52.6101 126.295 53.0704 126.295 53.6158C126.295 54.2446 126.131 54.8128 125.801 55.3204C125.475 55.8279 124.998 56.2313 124.369 56.5306C123.744 56.8298 122.985 56.9794 122.091 56.9794C121.258 56.9794 120.536 56.845 119.926 56.576C119.32 56.3071 118.843 55.9321 118.494 55.451C118.15 54.97 117.955 54.4113 117.909 53.7749H119.364C119.402 54.2143 119.549 54.5779 119.807 54.8658C120.068 55.1499 120.398 55.362 120.795 55.5022C121.197 55.6385 121.629 55.7067 122.091 55.7067C122.629 55.7067 123.112 55.6196 123.54 55.4454C123.968 55.2673 124.307 55.0211 124.557 54.7067C124.807 54.3885 124.932 54.0173 124.932 53.5931C124.932 53.2067 124.824 52.8923 124.608 52.6499C124.392 52.4075 124.108 52.2105 123.756 52.059C123.403 51.9075 123.023 51.7749 122.614 51.6613L121.182 51.2522C120.273 50.9908 119.553 50.6177 119.023 50.1329C118.492 49.648 118.227 49.0135 118.227 48.2294C118.227 47.5779 118.403 47.0098 118.756 46.5249C119.112 46.0363 119.589 45.6575 120.188 45.3885C120.79 45.1158 121.462 44.9794 122.205 44.9794C122.955 44.9794 123.621 45.1139 124.205 45.3829C124.788 45.648 125.25 46.0116 125.591 46.4738C125.936 46.9359 126.117 47.4605 126.136 48.0476H124.773ZM133.85 53.2067V48.0476H135.191V56.7749H133.85V55.2976H133.759C133.555 55.7408 133.237 56.1177 132.805 56.4283C132.373 56.7351 131.828 56.8885 131.169 56.8885C130.623 56.8885 130.138 56.7692 129.714 56.5306C129.29 56.2882 128.956 55.9245 128.714 55.4397C128.472 54.951 128.35 54.3355 128.35 53.5931V48.0476H129.691V53.5022C129.691 54.1385 129.869 54.6461 130.225 55.0249C130.585 55.4037 131.044 55.5931 131.6 55.5931C131.934 55.5931 132.273 55.5079 132.617 55.3374C132.966 55.1669 133.258 54.9056 133.492 54.5533C133.731 54.201 133.85 53.7522 133.85 53.2067ZM137.567 60.0476V48.0476H138.863V49.434H139.022C139.12 49.2825 139.257 49.0893 139.431 48.8544C139.609 48.6158 139.863 48.4037 140.192 48.2181C140.526 48.0287 140.976 47.934 141.545 47.934C142.279 47.934 142.927 48.1177 143.488 48.4851C144.048 48.8526 144.486 49.3734 144.8 50.0476C145.115 50.7219 145.272 51.5173 145.272 52.434C145.272 53.3582 145.115 54.1594 144.8 54.8374C144.486 55.5116 144.05 56.0344 143.493 56.4056C142.937 56.773 142.295 56.9567 141.567 56.9567C141.007 56.9567 140.558 56.8639 140.221 56.6783C139.884 56.4889 139.624 56.2749 139.442 56.0363C139.26 55.7938 139.12 55.5931 139.022 55.434H138.908V60.0476H137.567ZM138.885 52.4113C138.885 53.0704 138.982 53.6518 139.175 54.1556C139.368 54.6556 139.651 55.0476 140.022 55.3317C140.393 55.612 140.848 55.7522 141.385 55.7522C141.946 55.7522 142.414 55.6044 142.789 55.309C143.168 55.0098 143.452 54.6082 143.641 54.1044C143.834 53.5969 143.931 53.0325 143.931 52.4113C143.931 51.7976 143.836 51.2446 143.647 50.7522C143.461 50.256 143.179 49.8639 142.8 49.576C142.425 49.2844 141.954 49.1385 141.385 49.1385C140.84 49.1385 140.382 49.2768 140.01 49.5533C139.639 49.826 139.359 50.2086 139.17 50.701C138.98 51.1897 138.885 51.7598 138.885 52.4113ZM147.237 60.0476V48.0476H148.533V49.434H148.692C148.79 49.2825 148.927 49.0893 149.101 48.8544C149.279 48.6158 149.533 48.4037 149.862 48.2181C150.196 48.0287 150.646 47.934 151.215 47.934C151.949 47.934 152.597 48.1177 153.158 48.4851C153.718 48.8526 154.156 49.3734 154.47 50.0476C154.785 50.7219 154.942 51.5173 154.942 52.434C154.942 53.3582 154.785 54.1594 154.47 54.8374C154.156 55.5116 153.72 56.0344 153.163 56.4056C152.607 56.773 151.965 56.9567 151.237 56.9567C150.677 56.9567 150.228 56.8639 149.891 56.6783C149.554 56.4889 149.294 56.2749 149.112 56.0363C148.93 55.7938 148.79 55.5931 148.692 55.434H148.578V60.0476H147.237ZM148.555 52.4113C148.555 53.0704 148.652 53.6518 148.845 54.1556C149.038 54.6556 149.321 55.0476 149.692 55.3317C150.063 55.612 150.518 55.7522 151.055 55.7522C151.616 55.7522 152.084 55.6044 152.459 55.309C152.838 55.0098 153.122 54.6082 153.311 54.1044C153.504 53.5969 153.601 53.0325 153.601 52.4113C153.601 51.7976 153.506 51.2446 153.317 50.7522C153.131 50.256 152.849 49.8639 152.47 49.576C152.095 49.2844 151.624 49.1385 151.055 49.1385C150.51 49.1385 150.052 49.2768 149.68 49.5533C149.309 49.826 149.029 50.2086 148.84 50.701C148.65 51.1897 148.555 51.7598 148.555 52.4113ZM160.453 56.9567C159.665 56.9567 158.974 56.7692 158.379 56.3942C157.788 56.0192 157.326 55.4946 156.993 54.8204C156.663 54.1461 156.498 53.3582 156.498 52.4567C156.498 51.5476 156.663 50.7541 156.993 50.076C157.326 49.398 157.788 48.8715 158.379 48.4965C158.974 48.1215 159.665 47.934 160.453 47.934C161.241 47.934 161.93 48.1215 162.521 48.4965C163.116 48.8715 163.578 49.398 163.907 50.076C164.241 50.7541 164.407 51.5476 164.407 52.4567C164.407 53.3582 164.241 54.1461 163.907 54.8204C163.578 55.4946 163.116 56.0192 162.521 56.3942C161.93 56.7692 161.241 56.9567 160.453 56.9567ZM160.453 55.7522C161.051 55.7522 161.544 55.5988 161.93 55.2919C162.316 54.9851 162.602 54.5817 162.788 54.0817C162.974 53.5817 163.066 53.0401 163.066 52.4567C163.066 51.8734 162.974 51.3298 162.788 50.826C162.602 50.3223 162.316 49.9151 161.93 49.6044C161.544 49.2938 161.051 49.1385 160.453 49.1385C159.854 49.1385 159.362 49.2938 158.975 49.6044C158.589 49.9151 158.303 50.3223 158.118 50.826C157.932 51.3298 157.839 51.8734 157.839 52.4567C157.839 53.0401 157.932 53.5817 158.118 54.0817C158.303 54.5817 158.589 54.9851 158.975 55.2919C159.362 55.5988 159.854 55.7522 160.453 55.7522ZM166.374 56.7749V48.0476H167.67V49.3658H167.761C167.92 48.934 168.207 48.5836 168.624 48.3147C169.041 48.0457 169.511 47.9113 170.033 47.9113C170.132 47.9113 170.255 47.9132 170.403 47.9169C170.55 47.9207 170.662 47.9264 170.738 47.934V49.2976C170.692 49.2863 170.588 49.2692 170.425 49.2465C170.266 49.22 170.098 49.2067 169.92 49.2067C169.495 49.2067 169.117 49.2957 168.783 49.4738C168.454 49.648 168.192 49.8904 167.999 50.201C167.81 50.5079 167.715 50.8582 167.715 51.2522V56.7749H166.374ZM176.59 48.0476V49.184H172.067V48.0476H176.59ZM173.385 45.9567H174.726V54.2749C174.726 54.6537 174.781 54.9378 174.891 55.1272C175.004 55.3128 175.148 55.4378 175.323 55.5022C175.501 55.5628 175.688 55.5931 175.885 55.5931C176.033 55.5931 176.154 55.5855 176.249 55.5704C176.343 55.5514 176.419 55.5363 176.476 55.5249L176.749 56.7294C176.658 56.7635 176.531 56.7976 176.368 56.8317C176.205 56.8696 175.999 56.8885 175.749 56.8885C175.37 56.8885 174.999 56.8071 174.635 56.6442C174.275 56.4813 173.976 56.2332 173.737 55.8999C173.502 55.5666 173.385 55.1461 173.385 54.6385V45.9567ZM182.092 56.9567C181.251 56.9567 180.526 56.7711 179.916 56.3999C179.31 56.0249 178.842 55.5022 178.512 54.8317C178.187 54.1575 178.024 53.3734 178.024 52.4794C178.024 51.5855 178.187 50.7976 178.512 50.1158C178.842 49.4302 179.3 48.8961 179.887 48.5135C180.478 48.1272 181.168 47.934 181.956 47.934C182.41 47.934 182.859 48.0098 183.302 48.1613C183.745 48.3128 184.149 48.559 184.512 48.8999C184.876 49.237 185.166 49.684 185.382 50.2408C185.598 50.7976 185.706 51.4832 185.706 52.2976V52.8658H178.978V51.7067H184.342C184.342 51.2143 184.244 50.7749 184.047 50.3885C183.853 50.0022 183.577 49.6973 183.217 49.4738C182.861 49.2503 182.44 49.1385 181.956 49.1385C181.422 49.1385 180.959 49.2711 180.569 49.5363C180.183 49.7976 179.886 50.1385 179.677 50.559C179.469 50.9794 179.365 51.4302 179.365 51.9113V52.684C179.365 53.3431 179.478 53.9018 179.706 54.3601C179.937 54.8147 180.257 55.1613 180.666 55.3999C181.075 55.6348 181.55 55.7522 182.092 55.7522C182.444 55.7522 182.762 55.7029 183.047 55.6044C183.334 55.5022 183.583 55.3507 183.791 55.1499C183.999 54.9454 184.16 54.6916 184.274 54.3885L185.569 54.7522C185.433 55.1916 185.204 55.5779 184.882 55.9113C184.56 56.2408 184.162 56.4984 183.689 56.684C183.215 56.8658 182.683 56.9567 182.092 56.9567ZM190.961 56.9567C190.234 56.9567 189.592 56.773 189.035 56.4056C188.478 56.0344 188.042 55.5116 187.728 54.8374C187.414 54.1594 187.256 53.3582 187.256 52.434C187.256 51.5173 187.414 50.7219 187.728 50.0476C188.042 49.3734 188.48 48.8526 189.04 48.4851C189.601 48.1177 190.249 47.934 190.984 47.934C191.552 47.934 192.001 48.0287 192.33 48.2181C192.664 48.4037 192.917 48.6158 193.092 48.8544C193.27 49.0893 193.408 49.2825 193.506 49.434H193.62V45.1385H194.961V56.7749H193.665V55.434H193.506C193.408 55.5931 193.268 55.7938 193.086 56.0363C192.904 56.2749 192.645 56.4889 192.307 56.6783C191.97 56.8639 191.521 56.9567 190.961 56.9567ZM191.143 55.7522C191.681 55.7522 192.135 55.612 192.506 55.3317C192.878 55.0476 193.16 54.6556 193.353 54.1556C193.546 53.6518 193.643 53.0704 193.643 52.4113C193.643 51.7598 193.548 51.1897 193.359 50.701C193.169 50.2086 192.889 49.826 192.518 49.5533C192.146 49.2768 191.688 49.1385 191.143 49.1385C190.574 49.1385 190.101 49.2844 189.722 49.576C189.347 49.8639 189.065 50.256 188.876 50.7522C188.69 51.2446 188.597 51.7976 188.597 52.4113C188.597 53.0325 188.692 53.5969 188.881 54.1044C189.074 54.6082 189.359 55.0098 189.734 55.309C190.112 55.6044 190.582 55.7522 191.143 55.7522ZM202.125 56.7749V45.1385H203.466V49.434H203.579C203.678 49.2825 203.814 49.0893 203.988 48.8544C204.166 48.6158 204.42 48.4037 204.75 48.2181C205.083 48.0287 205.534 47.934 206.102 47.934C206.837 47.934 207.485 48.1177 208.045 48.4851C208.606 48.8526 209.043 49.3734 209.358 50.0476C209.672 50.7219 209.829 51.5173 209.829 52.434C209.829 53.3582 209.672 54.1594 209.358 54.8374C209.043 55.5116 208.608 56.0344 208.051 56.4056C207.494 56.773 206.852 56.9567 206.125 56.9567C205.564 56.9567 205.115 56.8639 204.778 56.6783C204.441 56.4889 204.182 56.2749 204 56.0363C203.818 55.7938 203.678 55.5931 203.579 55.434H203.42V56.7749H202.125ZM203.443 52.4113C203.443 53.0704 203.539 53.6518 203.733 54.1556C203.926 54.6556 204.208 55.0476 204.579 55.3317C204.95 55.612 205.405 55.7522 205.943 55.7522C206.504 55.7522 206.971 55.6044 207.346 55.309C207.725 55.0098 208.009 54.6082 208.199 54.1044C208.392 53.5969 208.488 53.0325 208.488 52.4113C208.488 51.7976 208.394 51.2446 208.204 50.7522C208.019 50.256 207.736 49.8639 207.358 49.576C206.983 49.2844 206.511 49.1385 205.943 49.1385C205.397 49.1385 204.939 49.2768 204.568 49.5533C204.197 49.826 203.916 50.2086 203.727 50.701C203.538 51.1897 203.443 51.7598 203.443 52.4113ZM212.352 60.0476C212.124 60.0476 211.922 60.0287 211.744 59.9908C211.566 59.9567 211.442 59.9226 211.374 59.8885L211.715 58.7067C212.041 58.7901 212.329 58.8204 212.579 58.7976C212.829 58.7749 213.05 58.6632 213.244 58.4624C213.441 58.2654 213.62 57.9454 213.783 57.5022L214.033 56.8204L210.806 48.0476H212.261L214.67 55.0022H214.761L217.17 48.0476H218.624L214.92 58.0476C214.753 58.4984 214.547 58.8715 214.3 59.1669C214.054 59.4662 213.768 59.6878 213.442 59.8317C213.12 59.9757 212.757 60.0476 212.352 60.0476ZM234.28 48.7749H232.871C232.787 48.3696 232.641 48.0135 232.433 47.7067C232.228 47.3999 231.978 47.1423 231.683 46.934C231.391 46.7219 231.067 46.5628 230.711 46.4567C230.355 46.3507 229.984 46.2976 229.598 46.2976C228.893 46.2976 228.255 46.4757 227.683 46.8317C227.115 47.1878 226.662 47.7124 226.325 48.4056C225.992 49.0988 225.825 49.9491 225.825 50.9567C225.825 51.9643 225.992 52.8147 226.325 53.5079C226.662 54.201 227.115 54.7257 227.683 55.0817C228.255 55.4378 228.893 55.6158 229.598 55.6158C229.984 55.6158 230.355 55.5628 230.711 55.4567C231.067 55.3507 231.391 55.1935 231.683 54.9851C231.978 54.773 232.228 54.5135 232.433 54.2067C232.641 53.8961 232.787 53.5401 232.871 53.1385H234.28C234.174 53.7332 233.98 54.2654 233.7 54.7351C233.42 55.2048 233.071 55.6044 232.655 55.934C232.238 56.2598 231.77 56.5079 231.251 56.6783C230.736 56.8488 230.185 56.934 229.598 56.934C228.605 56.934 227.723 56.6916 226.95 56.2067C226.177 55.7219 225.569 55.0325 225.126 54.1385C224.683 53.2446 224.461 52.184 224.461 50.9567C224.461 49.7294 224.683 48.6688 225.126 47.7749C225.569 46.881 226.177 46.1916 226.95 45.7067C227.723 45.2219 228.605 44.9794 229.598 44.9794C230.185 44.9794 230.736 45.0647 231.251 45.2351C231.77 45.4056 232.238 45.6556 232.655 45.9851C233.071 46.3109 233.42 46.7086 233.7 47.1783C233.98 47.6442 234.174 48.1764 234.28 48.7749ZM238.863 56.9794C238.31 56.9794 237.808 56.8753 237.357 56.6669C236.907 56.4548 236.549 56.1499 236.283 55.7522C236.018 55.3507 235.886 54.8658 235.886 54.2976C235.886 53.7976 235.984 53.3923 236.181 53.0817C236.378 52.7673 236.641 52.5211 236.971 52.3431C237.3 52.1651 237.664 52.0325 238.062 51.9454C238.463 51.8544 238.867 51.7825 239.272 51.7294C239.802 51.6613 240.232 51.6101 240.562 51.576C240.895 51.5382 241.138 51.4757 241.289 51.3885C241.444 51.3014 241.522 51.1499 241.522 50.934V50.8885C241.522 50.3279 241.369 49.8923 241.062 49.5817C240.759 49.2711 240.299 49.1158 239.681 49.1158C239.041 49.1158 238.539 49.256 238.175 49.5363C237.812 49.8166 237.556 50.1158 237.408 50.434L236.136 49.9794C236.363 49.4491 236.666 49.0363 237.045 48.7408C237.427 48.4416 237.844 48.2332 238.295 48.1158C238.749 47.9946 239.196 47.934 239.636 47.934C239.916 47.934 240.238 47.9681 240.602 48.0363C240.969 48.1007 241.323 48.2351 241.664 48.4397C242.009 48.6442 242.295 48.9529 242.522 49.3658C242.749 49.7787 242.863 50.3317 242.863 51.0249V56.7749H241.522V55.5931H241.454C241.363 55.7825 241.211 55.9851 240.999 56.201C240.787 56.4169 240.505 56.6007 240.153 56.7522C239.8 56.9037 239.371 56.9794 238.863 56.9794ZM239.067 55.7749C239.598 55.7749 240.045 55.6707 240.408 55.4624C240.776 55.2541 241.052 54.9851 241.238 54.6556C241.427 54.326 241.522 53.9794 241.522 53.6158V52.3885C241.465 52.4567 241.34 52.5192 241.147 52.576C240.958 52.6291 240.738 52.6764 240.488 52.7181C240.242 52.756 240.001 52.7901 239.766 52.8204C239.535 52.8469 239.348 52.8696 239.204 52.8885C238.855 52.934 238.53 53.0079 238.227 53.1101C237.927 53.2086 237.685 53.3582 237.499 53.559C237.317 53.756 237.227 54.0249 237.227 54.3658C237.227 54.8317 237.399 55.184 237.744 55.4226C238.092 55.6575 238.533 55.7749 239.067 55.7749ZM246.571 51.5249V56.7749H245.23V48.0476H246.526V49.4113H246.639C246.844 48.9681 247.155 48.612 247.571 48.3431C247.988 48.0704 248.526 47.934 249.185 47.934C249.776 47.934 250.293 48.0552 250.736 48.2976C251.179 48.5363 251.524 48.8999 251.77 49.3885C252.016 49.8734 252.139 50.487 252.139 51.2294V56.7749H250.799V51.3204C250.799 50.6348 250.621 50.1007 250.264 49.7181C249.908 49.3317 249.42 49.1385 248.799 49.1385C248.371 49.1385 247.988 49.2313 247.651 49.4169C247.318 49.6026 247.054 49.8734 246.861 50.2294C246.668 50.5855 246.571 51.0173 246.571 51.5249ZM257.078 56.9794C256.525 56.9794 256.023 56.8753 255.572 56.6669C255.122 56.4548 254.764 56.1499 254.498 55.7522C254.233 55.3507 254.101 54.8658 254.101 54.2976C254.101 53.7976 254.199 53.3923 254.396 53.0817C254.593 52.7673 254.856 52.5211 255.186 52.3431C255.515 52.1651 255.879 52.0325 256.277 51.9454C256.678 51.8544 257.082 51.7825 257.487 51.7294C258.017 51.6613 258.447 51.6101 258.777 51.576C259.11 51.5382 259.353 51.4757 259.504 51.3885C259.659 51.3014 259.737 51.1499 259.737 50.934V50.8885C259.737 50.3279 259.584 49.8923 259.277 49.5817C258.974 49.2711 258.514 49.1158 257.896 49.1158C257.256 49.1158 256.754 49.256 256.39 49.5363C256.027 49.8166 255.771 50.1158 255.623 50.434L254.351 49.9794C254.578 49.4491 254.881 49.0363 255.26 48.7408C255.642 48.4416 256.059 48.2332 256.51 48.1158C256.964 47.9946 257.411 47.934 257.851 47.934C258.131 47.934 258.453 47.9681 258.817 48.0363C259.184 48.1007 259.538 48.2351 259.879 48.4397C260.224 48.6442 260.51 48.9529 260.737 49.3658C260.964 49.7787 261.078 50.3317 261.078 51.0249V56.7749H259.737V55.5931H259.669C259.578 55.7825 259.426 55.9851 259.214 56.201C259.002 56.4169 258.72 56.6007 258.368 56.7522C258.015 56.9037 257.586 56.9794 257.078 56.9794ZM257.283 55.7749C257.813 55.7749 258.26 55.6707 258.623 55.4624C258.991 55.2541 259.267 54.9851 259.453 54.6556C259.642 54.326 259.737 53.9794 259.737 53.6158V52.3885C259.68 52.4567 259.555 52.5192 259.362 52.576C259.173 52.6291 258.953 52.6764 258.703 52.7181C258.457 52.756 258.216 52.7901 257.981 52.8204C257.75 52.8469 257.563 52.8696 257.419 52.8885C257.07 52.934 256.745 53.0079 256.442 53.1101C256.142 53.2086 255.9 53.3582 255.714 53.559C255.533 53.756 255.442 54.0249 255.442 54.3658C255.442 54.8317 255.614 55.184 255.959 55.4226C256.307 55.6575 256.748 55.7749 257.283 55.7749ZM266.741 56.9567C266.014 56.9567 265.372 56.773 264.815 56.4056C264.258 56.0344 263.822 55.5116 263.508 54.8374C263.194 54.1594 263.036 53.3582 263.036 52.434C263.036 51.5173 263.194 50.7219 263.508 50.0476C263.822 49.3734 264.26 48.8526 264.82 48.4851C265.381 48.1177 266.029 47.934 266.764 47.934C267.332 47.934 267.781 48.0287 268.11 48.2181C268.444 48.4037 268.697 48.6158 268.872 48.8544C269.05 49.0893 269.188 49.2825 269.286 49.434H269.4V45.1385H270.741V56.7749H269.445V55.434H269.286C269.188 55.5931 269.048 55.7938 268.866 56.0363C268.684 56.2749 268.425 56.4889 268.087 56.6783C267.75 56.8639 267.301 56.9567 266.741 56.9567ZM266.923 55.7522C267.461 55.7522 267.915 55.612 268.286 55.3317C268.658 55.0476 268.94 54.6556 269.133 54.1556C269.326 53.6518 269.423 53.0704 269.423 52.4113C269.423 51.7598 269.328 51.1897 269.139 50.701C268.949 50.2086 268.669 49.826 268.298 49.5533C267.926 49.2768 267.468 49.1385 266.923 49.1385C266.354 49.1385 265.881 49.2844 265.502 49.576C265.127 49.8639 264.845 50.256 264.656 50.7522C264.47 51.2446 264.377 51.7976 264.377 52.4113C264.377 53.0325 264.472 53.5969 264.661 54.1044C264.854 54.6082 265.139 55.0098 265.514 55.309C265.892 55.6044 266.362 55.7522 266.923 55.7522ZM275.871 56.9794C275.318 56.9794 274.816 56.8753 274.365 56.6669C273.915 56.4548 273.557 56.1499 273.292 55.7522C273.026 55.3507 272.894 54.8658 272.894 54.2976C272.894 53.7976 272.992 53.3923 273.189 53.0817C273.386 52.7673 273.649 52.5211 273.979 52.3431C274.309 52.1651 274.672 52.0325 275.07 51.9454C275.471 51.8544 275.875 51.7825 276.28 51.7294C276.81 51.6613 277.24 51.6101 277.57 51.576C277.903 51.5382 278.146 51.4757 278.297 51.3885C278.453 51.3014 278.53 51.1499 278.53 50.934V50.8885C278.53 50.3279 278.377 49.8923 278.07 49.5817C277.767 49.2711 277.307 49.1158 276.689 49.1158C276.049 49.1158 275.547 49.256 275.184 49.5363C274.82 49.8166 274.564 50.1158 274.417 50.434L273.144 49.9794C273.371 49.4491 273.674 49.0363 274.053 48.7408C274.435 48.4416 274.852 48.2332 275.303 48.1158C275.757 47.9946 276.204 47.934 276.644 47.934C276.924 47.934 277.246 47.9681 277.61 48.0363C277.977 48.1007 278.331 48.2351 278.672 48.4397C279.017 48.6442 279.303 48.9529 279.53 49.3658C279.757 49.7787 279.871 50.3317 279.871 51.0249V56.7749H278.53V55.5931H278.462C278.371 55.7825 278.22 55.9851 278.007 56.201C277.795 56.4169 277.513 56.6007 277.161 56.7522C276.809 56.9037 276.379 56.9794 275.871 56.9794ZM276.076 55.7749C276.606 55.7749 277.053 55.6707 277.417 55.4624C277.784 55.2541 278.06 54.9851 278.246 54.6556C278.435 54.326 278.53 53.9794 278.53 53.6158V52.3885C278.473 52.4567 278.348 52.5192 278.155 52.576C277.966 52.6291 277.746 52.6764 277.496 52.7181C277.25 52.756 277.009 52.7901 276.774 52.8204C276.543 52.8469 276.356 52.8696 276.212 52.8885C275.864 52.934 275.538 53.0079 275.235 53.1101C274.935 53.2086 274.693 53.3582 274.507 53.559C274.326 53.756 274.235 54.0249 274.235 54.3658C274.235 54.8317 274.407 55.184 274.752 55.4226C275.1 55.6575 275.542 55.7749 276.076 55.7749ZM296.204 48.7749H294.795C294.712 48.3696 294.566 48.0135 294.357 47.7067C294.153 47.3999 293.903 47.1423 293.607 46.934C293.316 46.7219 292.992 46.5628 292.636 46.4567C292.28 46.3507 291.909 46.2976 291.522 46.2976C290.818 46.2976 290.179 46.4757 289.607 46.8317C289.039 47.1878 288.587 47.7124 288.249 48.4056C287.916 49.0988 287.749 49.9491 287.749 50.9567C287.749 51.9643 287.916 52.8147 288.249 53.5079C288.587 54.201 289.039 54.7257 289.607 55.0817C290.179 55.4378 290.818 55.6158 291.522 55.6158C291.909 55.6158 292.28 55.5628 292.636 55.4567C292.992 55.3507 293.316 55.1935 293.607 54.9851C293.903 54.773 294.153 54.5135 294.357 54.2067C294.566 53.8961 294.712 53.5401 294.795 53.1385H296.204C296.098 53.7332 295.905 54.2654 295.624 54.7351C295.344 55.2048 294.996 55.6044 294.579 55.934C294.162 56.2598 293.695 56.5079 293.176 56.6783C292.66 56.8488 292.109 56.934 291.522 56.934C290.53 56.934 289.647 56.6916 288.874 56.2067C288.102 55.7219 287.494 55.0325 287.051 54.1385C286.607 53.2446 286.386 52.184 286.386 50.9567C286.386 49.7294 286.607 48.6688 287.051 47.7749C287.494 46.881 288.102 46.1916 288.874 45.7067C289.647 45.2219 290.53 44.9794 291.522 44.9794C292.109 44.9794 292.66 45.0647 293.176 45.2351C293.695 45.4056 294.162 45.6556 294.579 45.9851C294.996 46.3109 295.344 46.7086 295.624 47.1783C295.905 47.6442 296.098 48.1764 296.204 48.7749ZM301.765 56.9567C300.977 56.9567 300.285 56.7692 299.691 56.3942C299.1 56.0192 298.638 55.4946 298.304 54.8204C297.975 54.1461 297.81 53.3582 297.81 52.4567C297.81 51.5476 297.975 50.7541 298.304 50.076C298.638 49.398 299.1 48.8715 299.691 48.4965C300.285 48.1215 300.977 47.934 301.765 47.934C302.552 47.934 303.242 48.1215 303.833 48.4965C304.427 48.8715 304.89 49.398 305.219 50.076C305.552 50.7541 305.719 51.5476 305.719 52.4567C305.719 53.3582 305.552 54.1461 305.219 54.8204C304.89 55.4946 304.427 56.0192 303.833 56.3942C303.242 56.7692 302.552 56.9567 301.765 56.9567ZM301.765 55.7522C302.363 55.7522 302.856 55.5988 303.242 55.2919C303.628 54.9851 303.914 54.5817 304.1 54.0817C304.285 53.5817 304.378 53.0401 304.378 52.4567C304.378 51.8734 304.285 51.3298 304.1 50.826C303.914 50.3223 303.628 49.9151 303.242 49.6044C302.856 49.2938 302.363 49.1385 301.765 49.1385C301.166 49.1385 300.674 49.2938 300.287 49.6044C299.901 49.9151 299.615 50.3223 299.429 50.826C299.244 51.3298 299.151 51.8734 299.151 52.4567C299.151 53.0401 299.244 53.5817 299.429 54.0817C299.615 54.5817 299.901 54.9851 300.287 55.2919C300.674 55.5988 301.166 55.7522 301.765 55.7522ZM313.186 53.2067V48.0476H314.527V56.7749H313.186V55.2976H313.095C312.891 55.7408 312.572 56.1177 312.141 56.4283C311.709 56.7351 311.163 56.8885 310.504 56.8885C309.959 56.8885 309.474 56.7692 309.05 56.5306C308.625 56.2882 308.292 55.9245 308.05 55.4397C307.807 54.951 307.686 54.3355 307.686 53.5931V48.0476H309.027V53.5022C309.027 54.1385 309.205 54.6461 309.561 55.0249C309.921 55.4037 310.379 55.5931 310.936 55.5931C311.269 55.5931 311.608 55.5079 311.953 55.3374C312.302 55.1669 312.593 54.9056 312.828 54.5533C313.067 54.201 313.186 53.7522 313.186 53.2067ZM318.244 51.5249V56.7749H316.903V48.0476H318.198V49.4113H318.312C318.517 48.9681 318.827 48.612 319.244 48.3431C319.66 48.0704 320.198 47.934 320.857 47.934C321.448 47.934 321.965 48.0552 322.409 48.2976C322.852 48.5363 323.196 48.8999 323.443 49.3885C323.689 49.8734 323.812 50.487 323.812 51.2294V56.7749H322.471V51.3204C322.471 50.6348 322.293 50.1007 321.937 49.7181C321.581 49.3317 321.092 49.1385 320.471 49.1385C320.043 49.1385 319.66 49.2313 319.323 49.4169C318.99 49.6026 318.727 49.8734 318.534 50.2294C318.34 50.5855 318.244 51.0173 318.244 51.5249ZM329.728 56.9567C328.91 56.9567 328.205 56.7635 327.614 56.3772C327.023 55.9908 326.569 55.4586 326.25 54.7806C325.932 54.1026 325.773 53.3279 325.773 52.4567C325.773 51.5704 325.936 50.7882 326.262 50.1101C326.591 49.4283 327.05 48.8961 327.637 48.5135C328.228 48.1272 328.917 47.934 329.705 47.934C330.319 47.934 330.872 48.0476 331.364 48.2749C331.857 48.5022 332.26 48.8204 332.574 49.2294C332.889 49.6385 333.084 50.1158 333.16 50.6613H331.819C331.716 50.2635 331.489 49.9113 331.137 49.6044C330.788 49.2938 330.319 49.1385 329.728 49.1385C329.205 49.1385 328.747 49.2749 328.353 49.5476C327.963 49.8166 327.658 50.1973 327.438 50.6897C327.222 51.1783 327.114 51.7522 327.114 52.4113C327.114 53.0855 327.22 53.6726 327.432 54.1726C327.648 54.6726 327.951 55.0609 328.341 55.3374C328.735 55.6139 329.197 55.7522 329.728 55.7522C330.076 55.7522 330.393 55.6916 330.677 55.5704C330.961 55.4491 331.201 55.2749 331.398 55.0476C331.595 54.8204 331.735 54.5476 331.819 54.2294H333.16C333.084 54.7446 332.896 55.2086 332.597 55.6215C332.302 56.0306 331.91 56.3563 331.421 56.5988C330.936 56.8374 330.372 56.9567 329.728 56.9567ZM335.04 56.7749V48.0476H336.381V56.7749H335.04ZM335.722 46.5931C335.46 46.5931 335.235 46.5041 335.045 46.326C334.86 46.148 334.767 45.934 334.767 45.684C334.767 45.434 334.86 45.22 335.045 45.0419C335.235 44.8639 335.46 44.7749 335.722 44.7749C335.983 44.7749 336.206 44.8639 336.392 45.0419C336.581 45.22 336.676 45.434 336.676 45.684C336.676 45.934 336.581 46.148 336.392 46.326C336.206 46.5041 335.983 46.5931 335.722 46.5931ZM340.098 45.1385V56.7749H338.757V45.1385H340.098ZM122.114 68.0476V69.184H117.409V68.0476H122.114ZM118.818 76.7749V66.8431C118.818 66.3431 118.936 65.9264 119.17 65.5931C119.405 65.2598 119.71 65.0098 120.085 64.8431C120.46 64.6764 120.856 64.5931 121.273 64.5931C121.602 64.5931 121.871 64.6196 122.08 64.6726C122.288 64.7257 122.443 64.7749 122.545 64.8204L122.159 65.9794C122.091 65.9567 121.996 65.9283 121.875 65.8942C121.758 65.8601 121.602 65.8431 121.409 65.8431C120.966 65.8431 120.646 65.9548 120.449 66.1783C120.256 66.4018 120.159 66.7294 120.159 67.1613V76.7749H118.818ZM127.099 76.9567C126.311 76.9567 125.62 76.7692 125.025 76.3942C124.434 76.0192 123.972 75.4946 123.639 74.8204C123.309 74.1461 123.144 73.3582 123.144 72.4567C123.144 71.5476 123.309 70.7541 123.639 70.076C123.972 69.398 124.434 68.8715 125.025 68.4965C125.62 68.1215 126.311 67.934 127.099 67.934C127.887 67.934 128.576 68.1215 129.167 68.4965C129.762 68.8715 130.224 69.398 130.554 70.076C130.887 70.7541 131.054 71.5476 131.054 72.4567C131.054 73.3582 130.887 74.1461 130.554 74.8204C130.224 75.4946 129.762 76.0192 129.167 76.3942C128.576 76.7692 127.887 76.9567 127.099 76.9567ZM127.099 75.7522C127.697 75.7522 128.19 75.5988 128.576 75.2919C128.963 74.9851 129.249 74.5817 129.434 74.0817C129.62 73.5817 129.713 73.0401 129.713 72.4567C129.713 71.8734 129.62 71.3298 129.434 70.826C129.249 70.3223 128.963 69.9151 128.576 69.6044C128.19 69.2938 127.697 69.1385 127.099 69.1385C126.5 69.1385 126.008 69.2938 125.622 69.6044C125.235 69.9151 124.949 70.3223 124.764 70.826C124.578 71.3298 124.485 71.8734 124.485 72.4567C124.485 73.0401 124.578 73.5817 124.764 74.0817C124.949 74.5817 125.235 74.9851 125.622 75.2919C126.008 75.5988 126.5 75.7522 127.099 75.7522ZM133.02 76.7749V68.0476H134.316V69.3658H134.407C134.566 68.934 134.854 68.5836 135.27 68.3147C135.687 68.0457 136.157 67.9113 136.679 67.9113C136.778 67.9113 136.901 67.9132 137.049 67.9169C137.197 67.9207 137.308 67.9264 137.384 67.934V69.2976C137.339 69.2863 137.234 69.2692 137.072 69.2465C136.912 69.22 136.744 69.2067 136.566 69.2067C136.142 69.2067 135.763 69.2957 135.429 69.4738C135.1 69.648 134.839 69.8904 134.645 70.201C134.456 70.5079 134.361 70.8582 134.361 71.2522V76.7749H133.02ZM147.109 68.0476V69.184H142.586V68.0476H147.109ZM143.904 65.9567H145.245V74.2749C145.245 74.6537 145.3 74.9378 145.41 75.1272C145.524 75.3128 145.668 75.4378 145.842 75.5022C146.02 75.5628 146.207 75.5931 146.404 75.5931C146.552 75.5931 146.673 75.5855 146.768 75.5704C146.863 75.5514 146.939 75.5363 146.995 75.5249L147.268 76.7294C147.177 76.7635 147.05 76.7976 146.887 76.8317C146.725 76.8696 146.518 76.8885 146.268 76.8885C145.889 76.8885 145.518 76.8071 145.154 76.6442C144.795 76.4813 144.495 76.2332 144.257 75.8999C144.022 75.5666 143.904 75.1461 143.904 74.6385V65.9567ZM150.574 71.5249V76.7749H149.234V65.1385H150.574V69.4113H150.688C150.893 68.9605 151.199 68.6026 151.609 68.3374C152.021 68.0685 152.571 67.934 153.256 67.934C153.851 67.934 154.372 68.0533 154.819 68.2919C155.266 68.5268 155.612 68.8885 155.859 69.3772C156.109 69.862 156.234 70.4794 156.234 71.2294V76.7749H154.893V71.3204C154.893 70.6272 154.713 70.0912 154.353 69.7124C153.997 69.3298 153.502 69.1385 152.87 69.1385C152.43 69.1385 152.037 69.2313 151.688 69.4169C151.343 69.6026 151.071 69.8734 150.87 70.2294C150.673 70.5855 150.574 71.0173 150.574 71.5249ZM162.266 76.9567C161.425 76.9567 160.699 76.7711 160.09 76.3999C159.484 76.0249 159.016 75.5022 158.686 74.8317C158.36 74.1575 158.198 73.3734 158.198 72.4794C158.198 71.5855 158.36 70.7976 158.686 70.1158C159.016 69.4302 159.474 68.8961 160.061 68.5135C160.652 68.1272 161.341 67.934 162.129 67.934C162.584 67.934 163.033 68.0098 163.476 68.1613C163.919 68.3128 164.323 68.559 164.686 68.8999C165.05 69.237 165.34 69.684 165.556 70.2408C165.771 70.7976 165.879 71.4832 165.879 72.2976V72.8658H159.152V71.7067H164.516C164.516 71.2143 164.417 70.7749 164.22 70.3885C164.027 70.0022 163.751 69.6973 163.391 69.4738C163.035 69.2503 162.614 69.1385 162.129 69.1385C161.595 69.1385 161.133 69.2711 160.743 69.5363C160.357 69.7976 160.059 70.1385 159.851 70.559C159.643 70.9794 159.538 71.4302 159.538 71.9113V72.684C159.538 73.3431 159.652 73.9018 159.879 74.3601C160.11 74.8147 160.431 75.1613 160.84 75.3999C161.249 75.6348 161.724 75.7522 162.266 75.7522C162.618 75.7522 162.936 75.7029 163.22 75.6044C163.508 75.5022 163.756 75.3507 163.965 75.1499C164.173 74.9454 164.334 74.6916 164.448 74.3885L165.743 74.7522C165.607 75.1916 165.377 75.5779 165.056 75.9113C164.734 76.2408 164.336 76.4984 163.862 76.684C163.389 76.8658 162.857 76.9567 162.266 76.9567ZM172.918 76.7749H171.441L175.714 65.1385H177.168L181.441 76.7749H179.964L176.486 66.9794H176.396L172.918 76.7749ZM173.464 72.2294H179.418V73.4794H173.464V72.2294ZM182.992 76.7749V68.0476H184.287V69.3658H184.378C184.537 68.934 184.825 68.5836 185.242 68.3147C185.658 68.0457 186.128 67.9113 186.651 67.9113C186.749 67.9113 186.872 67.9132 187.02 67.9169C187.168 67.9207 187.28 67.9264 187.355 67.934V69.2976C187.31 69.2863 187.206 69.2692 187.043 69.2465C186.884 69.22 186.715 69.2067 186.537 69.2067C186.113 69.2067 185.734 69.2957 185.401 69.4738C185.071 69.648 184.81 69.8904 184.617 70.201C184.427 70.5079 184.333 70.8582 184.333 71.2522V76.7749H182.992ZM193.207 68.0476V69.184H188.684V68.0476H193.207ZM190.003 65.9567H191.343V74.2749C191.343 74.6537 191.398 74.9378 191.508 75.1272C191.622 75.3128 191.766 75.4378 191.94 75.5022C192.118 75.5628 192.306 75.5931 192.503 75.5931C192.65 75.5931 192.771 75.5855 192.866 75.5704C192.961 75.5514 193.037 75.5363 193.093 75.5249L193.366 76.7294C193.275 76.7635 193.148 76.7976 192.986 76.8317C192.823 76.8696 192.616 76.8885 192.366 76.8885C191.987 76.8885 191.616 76.8071 191.253 76.6442C190.893 76.4813 190.593 76.2332 190.355 75.8999C190.12 75.5666 190.003 75.1461 190.003 74.6385V65.9567ZM201.17 70.0022L199.965 70.3431C199.889 70.1423 199.778 69.9473 199.63 69.7579C199.486 69.5647 199.289 69.4056 199.039 69.2806C198.789 69.1556 198.469 69.0931 198.079 69.0931C197.545 69.0931 197.1 69.2162 196.744 69.4624C196.391 69.7048 196.215 70.0135 196.215 70.3885C196.215 70.7219 196.336 70.9851 196.579 71.1783C196.821 71.3715 197.2 71.5325 197.715 71.6613L199.011 71.9794C199.791 72.1688 200.372 72.4586 200.755 72.8488C201.138 73.2351 201.329 73.7332 201.329 74.3431C201.329 74.8431 201.185 75.2901 200.897 75.684C200.613 76.0779 200.215 76.3885 199.704 76.6158C199.192 76.8431 198.598 76.9567 197.92 76.9567C197.03 76.9567 196.293 76.7635 195.709 76.3772C195.126 75.9908 194.757 75.4264 194.602 74.684L195.874 74.3658C195.995 74.8355 196.225 75.1878 196.562 75.4226C196.903 75.6575 197.348 75.7749 197.897 75.7749C198.522 75.7749 199.018 75.6423 199.386 75.3772C199.757 75.1082 199.942 74.7863 199.942 74.4113C199.942 74.1082 199.836 73.8544 199.624 73.6499C199.412 73.4416 199.086 73.2863 198.647 73.184L197.192 72.8431C196.393 72.6537 195.806 72.3601 195.431 71.9624C195.06 71.5609 194.874 71.059 194.874 70.4567C194.874 69.9643 195.013 69.5287 195.289 69.1499C195.569 68.7711 195.95 68.4738 196.431 68.2579C196.916 68.0419 197.465 67.934 198.079 67.934C198.942 67.934 199.62 68.1234 200.113 68.5022C200.609 68.881 200.961 69.381 201.17 70.0022ZM211.46 76.7749H207.869V65.1385H211.619C212.748 65.1385 213.714 65.3715 214.517 65.8374C215.32 66.2995 215.935 66.9643 216.363 67.8317C216.791 68.6954 217.005 69.7294 217.005 70.934C217.005 72.1461 216.79 73.1897 216.358 74.0647C215.926 74.9359 215.297 75.6063 214.471 76.076C213.646 76.5419 212.642 76.7749 211.46 76.7749ZM209.278 75.5249H211.369C212.331 75.5249 213.129 75.3393 213.761 74.9681C214.394 74.5969 214.865 74.0685 215.176 73.3829C215.487 72.6973 215.642 71.881 215.642 70.934C215.642 69.9946 215.488 69.1859 215.182 68.5079C214.875 67.826 214.416 67.3033 213.807 66.9397C213.197 66.5723 212.437 66.3885 211.528 66.3885H209.278V75.5249ZM219.107 76.7749V68.0476H220.448V76.7749H219.107ZM219.789 66.5931C219.528 66.5931 219.302 66.5041 219.113 66.326C218.927 66.148 218.835 65.934 218.835 65.684C218.835 65.434 218.927 65.22 219.113 65.0419C219.302 64.8639 219.528 64.7749 219.789 64.7749C220.05 64.7749 220.274 64.8639 220.46 65.0419C220.649 65.22 220.744 65.434 220.744 65.684C220.744 65.934 220.649 66.148 220.46 66.326C220.274 66.5041 220.05 66.5931 219.789 66.5931ZM226.347 80.2294C225.699 80.2294 225.142 80.1461 224.676 79.9794C224.211 79.8166 223.822 79.6007 223.512 79.3317C223.205 79.0666 222.961 78.7825 222.779 78.4794L223.847 77.7294C223.968 77.8885 224.121 78.0704 224.307 78.2749C224.493 78.4832 224.746 78.6632 225.068 78.8147C225.394 78.97 225.82 79.0476 226.347 79.0476C227.051 79.0476 227.633 78.8772 228.091 78.5363C228.55 78.1954 228.779 77.6613 228.779 76.934V75.1613H228.665C228.567 75.3204 228.426 75.5173 228.245 75.7522C228.067 75.9832 227.809 76.1897 227.472 76.3715C227.139 76.5495 226.688 76.6385 226.12 76.6385C225.415 76.6385 224.782 76.4719 224.222 76.1385C223.665 75.8052 223.224 75.3204 222.898 74.684C222.576 74.0476 222.415 73.2749 222.415 72.3658C222.415 71.4719 222.572 70.6935 222.887 70.0306C223.201 69.3639 223.639 68.8488 224.199 68.4851C224.76 68.1177 225.407 67.934 226.142 67.934C226.711 67.934 227.161 68.0287 227.495 68.2181C227.832 68.4037 228.089 68.6158 228.267 68.8544C228.449 69.0893 228.589 69.2825 228.688 69.434H228.824V68.0476H230.12V77.0249C230.12 77.7749 229.949 78.3848 229.608 78.8544C229.271 79.3279 228.817 79.6745 228.245 79.8942C227.676 80.1177 227.044 80.2294 226.347 80.2294ZM226.301 75.434C226.839 75.434 227.294 75.3109 227.665 75.0647C228.036 74.8185 228.318 74.4643 228.512 74.0022C228.705 73.5401 228.801 72.987 228.801 72.3431C228.801 71.7143 228.707 71.1594 228.517 70.6783C228.328 70.1973 228.048 69.8204 227.676 69.5476C227.305 69.2749 226.847 69.1385 226.301 69.1385C225.733 69.1385 225.26 69.2825 224.881 69.5704C224.506 69.8582 224.224 70.2446 224.034 70.7294C223.849 71.2143 223.756 71.7522 223.756 72.3431C223.756 72.9491 223.851 73.4851 224.04 73.951C224.233 74.4132 224.517 74.7768 224.892 75.0419C225.271 75.3033 225.741 75.434 226.301 75.434ZM232.494 76.7749V68.0476H233.835V76.7749H232.494ZM233.176 66.5931C232.915 66.5931 232.689 66.5041 232.5 66.326C232.314 66.148 232.221 65.934 232.221 65.684C232.221 65.434 232.314 65.22 232.5 65.0419C232.689 64.8639 232.915 64.7749 233.176 64.7749C233.437 64.7749 233.661 64.8639 233.846 65.0419C234.036 65.22 234.131 65.434 234.131 65.684C234.131 65.934 234.036 66.148 233.846 66.326C233.661 66.5041 233.437 66.5931 233.176 66.5931ZM240.006 68.0476V69.184H235.484V68.0476H240.006ZM236.802 65.9567H238.143V74.2749C238.143 74.6537 238.198 74.9378 238.308 75.1272C238.421 75.3128 238.565 75.4378 238.739 75.5022C238.917 75.5628 239.105 75.5931 239.302 75.5931C239.45 75.5931 239.571 75.5855 239.666 75.5704C239.76 75.5514 239.836 75.5363 239.893 75.5249L240.166 76.7294C240.075 76.7635 239.948 76.7976 239.785 76.8317C239.622 76.8696 239.416 76.8885 239.166 76.8885C238.787 76.8885 238.416 76.8071 238.052 76.6442C237.692 76.4813 237.393 76.2332 237.154 75.8999C236.919 75.5666 236.802 75.1461 236.802 74.6385V65.9567ZM244.512 76.9794C243.959 76.9794 243.457 76.8753 243.006 76.6669C242.555 76.4548 242.197 76.1499 241.932 75.7522C241.667 75.3507 241.534 74.8658 241.534 74.2976C241.534 73.7976 241.633 73.3923 241.83 73.0817C242.027 72.7673 242.29 72.5211 242.62 72.3431C242.949 72.1651 243.313 72.0325 243.711 71.9454C244.112 71.8544 244.515 71.7825 244.921 71.7294C245.451 71.6613 245.881 71.6101 246.211 71.576C246.544 71.5382 246.786 71.4757 246.938 71.3885C247.093 71.3014 247.171 71.1499 247.171 70.934V70.8885C247.171 70.3279 247.017 69.8923 246.711 69.5817C246.408 69.2711 245.947 69.1158 245.33 69.1158C244.69 69.1158 244.188 69.256 243.824 69.5363C243.461 69.8166 243.205 70.1158 243.057 70.434L241.784 69.9794C242.012 69.4491 242.315 69.0363 242.694 68.7408C243.076 68.4416 243.493 68.2332 243.944 68.1158C244.398 67.9946 244.845 67.934 245.284 67.934C245.565 67.934 245.887 67.9681 246.25 68.0363C246.618 68.1007 246.972 68.2351 247.313 68.4397C247.658 68.6442 247.944 68.9529 248.171 69.3658C248.398 69.7787 248.512 70.3317 248.512 71.0249V76.7749H247.171V75.5931H247.103C247.012 75.7825 246.86 75.9851 246.648 76.201C246.436 76.4169 246.154 76.6007 245.801 76.7522C245.449 76.9037 245.019 76.9794 244.512 76.9794ZM244.716 75.7749C245.247 75.7749 245.694 75.6707 246.057 75.4624C246.425 75.2541 246.701 74.9851 246.887 74.6556C247.076 74.326 247.171 73.9794 247.171 73.6158V72.3885C247.114 72.4567 246.989 72.5192 246.796 72.576C246.606 72.6291 246.387 72.6764 246.137 72.7181C245.89 72.756 245.65 72.7901 245.415 72.8204C245.184 72.8469 244.997 72.8696 244.853 72.8885C244.504 72.934 244.178 73.0079 243.875 73.1101C243.576 73.2086 243.334 73.3582 243.148 73.559C242.966 73.756 242.875 74.0249 242.875 74.3658C242.875 74.8317 243.048 75.184 243.392 75.4226C243.741 75.6575 244.182 75.7749 244.716 75.7749ZM252.22 65.1385V76.7749H250.879V65.1385H252.22ZM265.561 68.0476C265.493 67.4719 265.217 67.0249 264.732 66.7067C264.247 66.3885 263.652 66.2294 262.948 66.2294C262.433 66.2294 261.982 66.3128 261.596 66.4794C261.213 66.6461 260.914 66.8753 260.698 67.1669C260.486 67.4586 260.38 67.7901 260.38 68.1613C260.38 68.4719 260.454 68.7389 260.601 68.9624C260.753 69.1821 260.946 69.3658 261.181 69.5135C261.416 69.6575 261.662 69.7768 261.919 69.8715C262.177 69.9624 262.414 70.0363 262.63 70.0931L263.811 70.4113C264.115 70.4908 264.452 70.6007 264.823 70.7408C265.198 70.881 265.556 71.0723 265.897 71.3147C266.241 71.5533 266.525 71.8601 266.749 72.2351C266.972 72.6101 267.084 73.0704 267.084 73.6158C267.084 74.2446 266.919 74.8128 266.59 75.3204C266.264 75.8279 265.787 76.2313 265.158 76.5306C264.533 76.8298 263.774 76.9794 262.88 76.9794C262.046 76.9794 261.325 76.845 260.715 76.576C260.109 76.3071 259.632 75.9321 259.283 75.451C258.938 74.97 258.743 74.4113 258.698 73.7749H260.152C260.19 74.2143 260.338 74.5779 260.596 74.8658C260.857 75.1499 261.186 75.362 261.584 75.5022C261.986 75.6385 262.418 75.7067 262.88 75.7067C263.418 75.7067 263.9 75.6196 264.329 75.4454C264.757 75.2673 265.096 75.0211 265.346 74.7067C265.596 74.3885 265.721 74.0173 265.721 73.5931C265.721 73.2067 265.613 72.8923 265.397 72.6499C265.181 72.4075 264.897 72.2105 264.544 72.059C264.192 71.9075 263.811 71.7749 263.402 71.6613L261.971 71.2522C261.061 70.9908 260.342 70.6177 259.811 70.1329C259.281 69.648 259.016 69.0135 259.016 68.2294C259.016 67.5779 259.192 67.0098 259.544 66.5249C259.9 66.0363 260.378 65.6575 260.976 65.3885C261.579 65.1158 262.251 64.9794 262.993 64.9794C263.743 64.9794 264.41 65.1139 264.993 65.3829C265.577 65.648 266.039 66.0116 266.38 66.4738C266.724 66.9359 266.906 67.4605 266.925 68.0476H265.561ZM272.935 68.0476V69.184H268.412V68.0476H272.935ZM269.73 65.9567H271.071V74.2749C271.071 74.6537 271.126 74.9378 271.236 75.1272C271.349 75.3128 271.493 75.4378 271.668 75.5022C271.846 75.5628 272.033 75.5931 272.23 75.5931C272.378 75.5931 272.499 75.5855 272.594 75.5704C272.688 75.5514 272.764 75.5363 272.821 75.5249L273.094 76.7294C273.003 76.7635 272.876 76.7976 272.713 76.8317C272.55 76.8696 272.344 76.8885 272.094 76.8885C271.715 76.8885 271.344 76.8071 270.98 76.6442C270.62 76.4813 270.321 76.2332 270.082 75.8999C269.847 75.5666 269.73 75.1461 269.73 74.6385V65.9567ZM274.872 76.7749V68.0476H276.167V69.3658H276.258C276.417 68.934 276.705 68.5836 277.122 68.3147C277.538 68.0457 278.008 67.9113 278.531 67.9113C278.629 67.9113 278.752 67.9132 278.9 67.9169C279.048 67.9207 279.16 67.9264 279.235 67.934V69.2976C279.19 69.2863 279.086 69.2692 278.923 69.2465C278.764 69.22 278.595 69.2067 278.417 69.2067C277.993 69.2067 277.614 69.2957 277.281 69.4738C276.951 69.648 276.69 69.8904 276.497 70.201C276.307 70.5079 276.213 70.8582 276.213 71.2522V76.7749H274.872ZM283.313 76.9794C282.76 76.9794 282.258 76.8753 281.807 76.6669C281.357 76.4548 280.999 76.1499 280.733 75.7522C280.468 75.3507 280.336 74.8658 280.336 74.2976C280.336 73.7976 280.434 73.3923 280.631 73.0817C280.828 72.7673 281.091 72.5211 281.421 72.3431C281.75 72.1651 282.114 72.0325 282.512 71.9454C282.913 71.8544 283.317 71.7825 283.722 71.7294C284.252 71.6613 284.682 71.6101 285.012 71.576C285.345 71.5382 285.588 71.4757 285.739 71.3885C285.894 71.3014 285.972 71.1499 285.972 70.934V70.8885C285.972 70.3279 285.819 69.8923 285.512 69.5817C285.209 69.2711 284.749 69.1158 284.131 69.1158C283.491 69.1158 282.989 69.256 282.625 69.5363C282.262 69.8166 282.006 70.1158 281.858 70.434L280.586 69.9794C280.813 69.4491 281.116 69.0363 281.495 68.7408C281.877 68.4416 282.294 68.2332 282.745 68.1158C283.199 67.9946 283.646 67.934 284.086 67.934C284.366 67.934 284.688 67.9681 285.052 68.0363C285.419 68.1007 285.773 68.2351 286.114 68.4397C286.459 68.6442 286.745 68.9529 286.972 69.3658C287.199 69.7787 287.313 70.3317 287.313 71.0249V76.7749H285.972V75.5931H285.904C285.813 75.7825 285.661 75.9851 285.449 76.201C285.237 76.4169 284.955 76.6007 284.603 76.7522C284.25 76.9037 283.821 76.9794 283.313 76.9794ZM283.518 75.7749C284.048 75.7749 284.495 75.6707 284.858 75.4624C285.226 75.2541 285.502 74.9851 285.688 74.6556C285.877 74.326 285.972 73.9794 285.972 73.6158V72.3885C285.915 72.4567 285.79 72.5192 285.597 72.576C285.408 72.6291 285.188 72.6764 284.938 72.7181C284.692 72.756 284.451 72.7901 284.216 72.8204C283.985 72.8469 283.798 72.8696 283.654 72.8885C283.305 72.934 282.98 73.0079 282.677 73.1101C282.377 73.2086 282.135 73.3582 281.949 73.559C281.768 73.756 281.677 74.0249 281.677 74.3658C281.677 74.8317 281.849 75.184 282.194 75.4226C282.542 75.6575 282.983 75.7749 283.518 75.7749ZM293.476 68.0476V69.184H288.953V68.0476H293.476ZM290.271 65.9567H291.612V74.2749C291.612 74.6537 291.667 74.9378 291.777 75.1272C291.891 75.3128 292.035 75.4378 292.209 75.5022C292.387 75.5628 292.574 75.5931 292.771 75.5931C292.919 75.5931 293.04 75.5855 293.135 75.5704C293.23 75.5514 293.305 75.5363 293.362 75.5249L293.635 76.7294C293.544 76.7635 293.417 76.7976 293.254 76.8317C293.091 76.8696 292.885 76.8885 292.635 76.8885C292.256 76.8885 291.885 76.8071 291.521 76.6442C291.161 76.4813 290.862 76.2332 290.624 75.8999C290.389 75.5666 290.271 75.1461 290.271 74.6385V65.9567ZM298.978 76.9567C298.137 76.9567 297.412 76.7711 296.802 76.3999C296.196 76.0249 295.728 75.5022 295.399 74.8317C295.073 74.1575 294.91 73.3734 294.91 72.4794C294.91 71.5855 295.073 70.7976 295.399 70.1158C295.728 69.4302 296.187 68.8961 296.774 68.5135C297.365 68.1272 298.054 67.934 298.842 67.934C299.296 67.934 299.745 68.0098 300.188 68.1613C300.632 68.3128 301.035 68.559 301.399 68.8999C301.762 69.237 302.052 69.684 302.268 70.2408C302.484 70.7976 302.592 71.4832 302.592 72.2976V72.8658H295.865V71.7067H301.228C301.228 71.2143 301.13 70.7749 300.933 70.3885C300.74 70.0022 300.463 69.6973 300.103 69.4738C299.747 69.2503 299.327 69.1385 298.842 69.1385C298.308 69.1385 297.846 69.2711 297.456 69.5363C297.069 69.7976 296.772 70.1385 296.563 70.559C296.355 70.9794 296.251 71.4302 296.251 71.9113V72.684C296.251 73.3431 296.365 73.9018 296.592 74.3601C296.823 74.8147 297.143 75.1613 297.552 75.3999C297.961 75.6348 298.437 75.7522 298.978 75.7522C299.331 75.7522 299.649 75.7029 299.933 75.6044C300.221 75.5022 300.469 75.3507 300.677 75.1499C300.885 74.9454 301.046 74.6916 301.16 74.3885L302.456 74.7522C302.319 75.1916 302.09 75.5779 301.768 75.9113C301.446 76.2408 301.048 76.4984 300.575 76.684C300.101 76.8658 299.569 76.9567 298.978 76.9567ZM308.074 80.2294C307.427 80.2294 306.87 80.1461 306.404 79.9794C305.938 79.8166 305.55 79.6007 305.239 79.3317C304.932 79.0666 304.688 78.7825 304.506 78.4794L305.574 77.7294C305.696 77.8885 305.849 78.0704 306.035 78.2749C306.22 78.4832 306.474 78.6632 306.796 78.8147C307.122 78.97 307.548 79.0476 308.074 79.0476C308.779 79.0476 309.36 78.8772 309.819 78.5363C310.277 78.1954 310.506 77.6613 310.506 76.934V75.1613H310.393C310.294 75.3204 310.154 75.5173 309.972 75.7522C309.794 75.9832 309.536 76.1897 309.199 76.3715C308.866 76.5495 308.415 76.6385 307.847 76.6385C307.143 76.6385 306.51 76.4719 305.949 76.1385C305.393 75.8052 304.951 75.3204 304.626 74.684C304.304 74.0476 304.143 73.2749 304.143 72.3658C304.143 71.4719 304.3 70.6935 304.614 70.0306C304.929 69.3639 305.366 68.8488 305.927 68.4851C306.487 68.1177 307.135 67.934 307.87 67.934C308.438 67.934 308.889 68.0287 309.222 68.2181C309.559 68.4037 309.817 68.6158 309.995 68.8544C310.177 69.0893 310.317 69.2825 310.415 69.434H310.552V68.0476H311.847V77.0249C311.847 77.7749 311.677 78.3848 311.336 78.8544C310.999 79.3279 310.544 79.6745 309.972 79.8942C309.404 80.1177 308.771 80.2294 308.074 80.2294ZM308.029 75.434C308.567 75.434 309.021 75.3109 309.393 75.0647C309.764 74.8185 310.046 74.4643 310.239 74.0022C310.432 73.5401 310.529 72.987 310.529 72.3431C310.529 71.7143 310.434 71.1594 310.245 70.6783C310.055 70.1973 309.775 69.8204 309.404 69.5476C309.033 69.2749 308.574 69.1385 308.029 69.1385C307.461 69.1385 306.987 69.2825 306.608 69.5704C306.233 69.8582 305.951 70.2446 305.762 70.7294C305.576 71.2143 305.483 71.7522 305.483 72.3431C305.483 72.9491 305.578 73.4851 305.768 73.951C305.961 74.4132 306.245 74.7768 306.62 75.0419C306.999 75.3033 307.468 75.434 308.029 75.434ZM315.085 80.0476C314.858 80.0476 314.655 80.0287 314.477 79.9908C314.299 79.9567 314.176 79.9226 314.108 79.8885L314.449 78.7067C314.775 78.7901 315.063 78.8204 315.313 78.7976C315.563 78.7749 315.784 78.6632 315.977 78.4624C316.174 78.2654 316.354 77.9454 316.517 77.5022L316.767 76.8204L313.54 68.0476H314.994L317.403 75.0022H317.494L319.903 68.0476H321.358L317.653 78.0476C317.487 78.4984 317.28 78.8715 317.034 79.1669C316.788 79.4662 316.502 79.6878 316.176 79.8317C315.854 79.9757 315.491 80.0476 315.085 80.0476ZM327.65 76.7749V65.1385H334.627V66.3885H329.059V70.3204H334.104V71.5704H329.059V76.7749H327.65ZM341.732 73.2067V68.0476H343.073V76.7749H341.732V75.2976H341.641C341.436 75.7408 341.118 76.1177 340.686 76.4283C340.254 76.7351 339.709 76.8885 339.05 76.8885C338.504 76.8885 338.02 76.7692 337.595 76.5306C337.171 76.2882 336.838 75.9245 336.595 75.4397C336.353 74.951 336.232 74.3355 336.232 73.5931V68.0476H337.573V73.5022C337.573 74.1385 337.751 74.6461 338.107 75.0249C338.467 75.4037 338.925 75.5931 339.482 75.5931C339.815 75.5931 340.154 75.5079 340.499 75.3374C340.847 75.1669 341.139 74.9056 341.374 74.5533C341.612 74.201 341.732 73.7522 341.732 73.2067ZM346.789 71.5249V76.7749H345.449V68.0476H346.744V69.4113H346.858C347.062 68.9681 347.373 68.612 347.789 68.3431C348.206 68.0704 348.744 67.934 349.403 67.934C349.994 67.934 350.511 68.0552 350.954 68.2976C351.397 68.5363 351.742 68.8999 351.988 69.3885C352.235 69.8734 352.358 70.487 352.358 71.2294V76.7749H351.017V71.3204C351.017 70.6348 350.839 70.1007 350.483 69.7181C350.127 69.3317 349.638 69.1385 349.017 69.1385C348.589 69.1385 348.206 69.2313 347.869 69.4169C347.536 69.6026 347.272 69.8734 347.079 70.2294C346.886 70.5855 346.789 71.0173 346.789 71.5249ZM358.023 76.9567C357.296 76.9567 356.654 76.773 356.097 76.4056C355.54 76.0344 355.105 75.5116 354.79 74.8374C354.476 74.1594 354.319 73.3582 354.319 72.434C354.319 71.5173 354.476 70.7219 354.79 70.0476C355.105 69.3734 355.542 68.8526 356.103 68.4851C356.664 68.1177 357.311 67.934 358.046 67.934C358.614 67.934 359.063 68.0287 359.393 68.2181C359.726 68.4037 359.98 68.6158 360.154 68.8544C360.332 69.0893 360.47 69.2825 360.569 69.434H360.682V65.1385H362.023V76.7749H360.728V75.434H360.569C360.47 75.5931 360.33 75.7938 360.148 76.0363C359.967 76.2749 359.707 76.4889 359.37 76.6783C359.033 76.8639 358.584 76.9567 358.023 76.9567ZM358.205 75.7522C358.743 75.7522 359.198 75.612 359.569 75.3317C359.94 75.0476 360.222 74.6556 360.415 74.1556C360.609 73.6518 360.705 73.0704 360.705 72.4113C360.705 71.7598 360.61 71.1897 360.421 70.701C360.232 70.2086 359.951 69.826 359.58 69.5533C359.209 69.2768 358.751 69.1385 358.205 69.1385C357.637 69.1385 357.164 69.2844 356.785 69.576C356.41 69.8639 356.128 70.256 355.938 70.7522C355.753 71.2446 355.66 71.7976 355.66 72.4113C355.66 73.0325 355.754 73.5969 355.944 74.1044C356.137 74.6082 356.421 75.0098 356.796 75.309C357.175 75.6044 357.645 75.7522 358.205 75.7522Z" fill="#D9FFEE"/>
<path d="M107.087 73.0732C105.191 71.2154 99.6938 69.623 94.0445 69.2817C93.6275 69.5851 93.3621 69.9263 93.2104 70.2675C97.9498 70.495 102.537 71.822 104.206 73.3386C105.722 74.5519 105.495 76.2201 103.713 77.3576C101.135 79.1775 95.7886 80.0116 89.9877 79.9737C84.1867 80.0116 78.8407 79.1775 76.2625 77.3576C74.4806 76.2201 74.2531 74.5519 75.7697 73.3386C77.4758 71.822 82.0256 70.4571 86.7649 70.2675C86.6133 69.9263 86.3099 69.623 85.9308 69.2817C80.2815 69.623 74.8218 71.2154 72.8881 73.0732C70.3099 75.386 72.3573 78.078 78.0066 79.7462C81.1535 80.6941 85.5896 81.2249 89.9498 81.2249C94.3099 81.2249 98.746 80.6941 101.893 79.7462C107.618 78.078 109.703 75.386 107.087 73.0732Z" fill="#D9FFEE"/>
<path d="M104.092 53.8886C103.978 52.3341 102.727 51.1208 101.21 50.5521C101.817 49.6801 101.931 48.7322 101.476 47.6706C100.755 46.0024 98.8217 45.4715 97.6464 45.5474C96.016 45.6611 95.0302 46.3436 93.2862 47.6706C92.8691 47.3673 92.0729 46.7607 91.6937 46.4573C91.6937 46.4573 92.8691 45.4715 94.1203 44.827C95.2956 44.1824 96.0918 44.1066 96.0918 44.1066C96.0918 44.1066 94.0065 41.263 89.9876 41.2251C85.9686 41.263 83.8833 44.1066 83.8833 44.1066C83.8833 44.1066 84.6795 44.1824 85.8549 44.827C87.1061 45.4715 88.2814 46.4573 88.2814 46.4573C87.9402 46.7227 87.1061 47.3294 86.689 47.6706C84.9449 46.3436 83.9591 45.6611 82.3288 45.5474C81.1914 45.4715 79.2198 46.0024 78.4994 47.6706C78.0444 48.7322 78.1582 49.6801 78.7648 50.5521C77.2482 51.1208 75.9971 52.2962 75.8833 53.8886C75.7696 55.4431 76.6795 56.8839 78.3099 57.5663C77.8549 58.1351 77.6274 58.8175 77.6274 59.3862C77.6274 60.9028 78.9923 62.9502 81.8738 62.8744C84.035 62.7986 84.8691 62.154 86.5753 60.827C86.689 60.9787 87.9781 63.064 87.9781 66.6659C87.9781 66.6659 88.1677 69.4336 86.8027 76.1825C86.8027 76.5237 88.2056 76.827 89.9497 76.827C91.6937 76.827 93.0966 76.5237 93.0966 76.1825C91.7317 69.4336 91.9212 66.6659 91.9212 66.6659C91.9212 63.064 93.2482 60.9787 93.3241 60.827C95.0302 62.1161 95.8644 62.7986 98.0255 62.8744C100.907 62.9502 102.272 60.9028 102.272 59.3862C102.272 58.8175 102.044 58.173 101.589 57.5663C103.258 56.8839 104.206 55.4431 104.092 53.8886ZM97.6084 47.7464C99.125 47.6706 99.6938 48.5806 99.58 49.1872C99.4283 49.9455 98.4805 50.5142 97.6084 50.4005C96.7364 50.3246 96.0918 49.8697 95.0682 49.0355C95.7506 48.4668 96.6227 47.7843 97.6084 47.7464ZM93.362 50.3246C93.8549 50.7038 94.3099 51.045 94.689 51.3104C94.8786 51.4621 95.0682 51.6137 95.2577 51.7275C94.9923 51.9171 94.8027 52.0687 94.4994 52.2962C94.2719 52.4479 93.9686 52.7133 93.6274 52.9407C93.0966 52.5616 92.49 52.0687 91.7696 51.5379C92.2625 51.1588 92.7554 50.7417 93.362 50.3246ZM91.6179 48.9976C91.125 49.3768 90.67 49.718 90.0634 50.2109C89.4568 49.7559 89.0018 49.3768 88.5089 48.9976C88.8881 48.6943 89.3809 48.3151 90.0255 47.8223L90.0634 47.7843L90.1013 47.8223C90.7459 48.3151 91.2009 48.6943 91.6179 48.9976ZM87.8644 43.7654C87.8644 43.7654 88.3952 43.1588 89.9876 43.1588C91.58 43.1588 92.1108 43.7654 92.1108 43.7654C92.1108 43.7654 91.6937 43.9929 91.125 44.4099C90.3667 44.9407 90.0255 45.2061 89.9876 45.2441C89.9497 45.2061 89.6084 44.9028 88.8501 44.4099C88.2814 43.9929 87.8644 43.7654 87.8644 43.7654ZM89.9497 52.9028L90.0255 52.827L90.1013 52.9028C90.67 53.3578 91.2767 53.7749 91.9212 54.2678C91.5421 54.5332 91.2388 54.7607 90.9734 54.9881C90.708 55.1777 90.4046 55.4052 90.1013 55.6327L90.0634 55.6706L90.0255 55.6327C89.7222 55.4052 89.4189 55.1777 89.1535 54.9881C88.8881 54.7986 88.5847 54.5332 88.2056 54.2678C88.7743 53.7749 89.3809 53.3578 89.9497 52.9028ZM86.689 50.3246C87.2577 50.7417 87.7885 51.1588 88.2814 51.5379C87.561 52.1066 86.9165 52.5616 86.4236 52.9407C86.1203 52.7133 85.7791 52.4479 85.5516 52.2962C85.2482 52.0687 85.0587 51.9171 84.8312 51.7275C85.0208 51.6137 85.2103 51.4621 85.3999 51.3104C85.7411 51.045 86.234 50.7038 86.689 50.3246ZM82.4426 47.7464C83.4283 47.7843 84.3004 48.5047 84.9828 49.0355C83.9212 49.8697 83.2767 50.3246 82.4426 50.4005C81.5705 50.5142 80.6226 49.9455 80.471 49.1872C80.3572 48.5806 80.9639 47.6706 82.4426 47.7464ZM78.0824 54.3436C78.0445 53.5474 78.6132 52.4099 80.7364 52.2962C82.1772 52.2204 83.1629 53.0545 84.7554 54.2298C83.5042 55.1777 82.5184 56.0118 80.6985 56.1256C79.2198 56.2393 78.1203 55.1398 78.0824 54.3436ZM82.1013 60.8649C80.5847 60.9408 79.6748 60.1825 79.7506 59.3483C79.7885 58.7038 81.2293 57.1872 84.2245 58.5142C84.6416 58.7038 84.9828 58.9313 85.3241 59.1967C83.8454 60.3341 83.2767 60.827 82.1013 60.8649ZM86.9544 57.9834C86.3857 57.4526 85.7791 56.9976 84.9828 56.6185C85.4757 56.3152 85.9307 55.936 86.4236 55.5569C86.4615 55.5189 86.4615 55.5189 86.4615 55.5189C87.144 56.0118 87.7885 56.5047 88.3193 56.9218C87.8644 57.3388 87.4094 57.6422 86.9544 57.9834ZM90.0634 63.6706L90.0255 63.8602L89.9876 63.6706C89.6084 62.1161 89.1535 60.7512 88.471 59.7275C89.0018 59.3104 89.4947 58.9313 90.0255 58.5521C90.5184 58.9313 91.0113 59.3104 91.58 59.7275C90.9355 60.7512 90.4426 62.1161 90.0634 63.6706ZM93.0966 57.9834C92.6416 57.6422 92.1866 57.3009 91.6937 56.9218C92.2625 56.5047 92.907 56.0118 93.5516 55.5189C93.5895 55.5189 93.5895 55.5189 93.5895 55.5569C94.0824 55.9739 94.5373 56.3152 95.0302 56.6185C94.2719 56.9976 93.6653 57.4526 93.0966 57.9834ZM97.9497 60.8649C96.7743 60.7891 96.2435 60.3341 94.7269 59.2346C95.0682 58.9313 95.4094 58.7417 95.8264 58.5521C98.8217 57.1872 100.262 58.7417 100.3 59.3862C100.338 60.1824 99.4663 60.9408 97.9497 60.8649ZM99.3525 56.1256C97.5705 56.0118 96.5847 55.1777 95.2956 54.2298C96.8501 53.0545 97.8738 52.2204 99.3146 52.2962C101.438 52.4099 102.007 53.5474 101.969 54.3436C101.931 55.1398 100.831 56.2393 99.3525 56.1256Z" fill="#D9FFEE"/>
</svg>
