<svg version="1.1" id="Layer_1" xmlns="http://www.w3.org/2000/svg" xmlns:xlink="http://www.w3.org/1999/xlink" x="0px" y="0px"
	 width="100%" viewBox="0 0 244 244" enable-background="new 0 0 244 244" xml:space="preserve">
<path fill="#2A3B34" opacity="1.000000" stroke="#2A3B34" stroke-width="4" 
	d="
M245.000000,55.531349 
	C244.118195,57.160709 242.955536,58.200951 242.398010,59.500751 
	C236.771591,72.617661 226.992950,81.016518 213.370193,84.850403 
	C209.476013,85.946350 208.083511,87.977142 207.948959,91.921555 
	C207.204681,113.739769 191.447372,128.832153 169.070267,128.950287 
	C138.084549,129.113876 107.097321,128.972290 76.110817,129.017670 
	C61.751572,129.038696 51.515984,137.940109 49.281860,152.179001 
	C48.364269,158.027176 49.296848,159.512924 54.956520,161.219559 
	C72.354660,166.465866 85.089836,181.504898 85.946320,197.815567 
	C87.041222,218.666931 77.734291,234.386581 59.659832,242.308762 
	C58.472183,242.829315 57.437099,243.697952 56.165527,244.702332 
	C47.979099,245.000000 39.958199,245.000000 31.303066,244.702332 
	C30.169689,243.979874 29.738157,243.386887 29.161442,243.155045 
	C17.232504,238.359116 8.414471,230.379303 3.411942,218.367020 
	C3.013099,217.409286 1.822603,216.781250 1.000000,216.000000 
	C1.000000,207.645767 1.000000,199.291534 1.296835,190.308334 
	C2.259900,188.741562 3.124308,187.887665 3.562381,186.853241 
	C9.350413,173.185944 19.430313,164.515594 33.770489,160.796860 
	C37.482273,159.834335 38.008663,157.128296 38.002693,153.878723 
	C37.965054,133.391571 37.910229,112.903824 38.046787,92.417511 
	C38.076046,88.027992 36.452415,85.933372 32.145790,84.696709 
	C18.741617,80.847672 9.136618,72.437439 3.601655,59.499977 
	C3.045580,58.200203 1.881766,57.160435 0.999999,56.000000 
	C1.000000,47.979099 1.000000,39.958199 1.297658,31.303059 
	C2.020122,30.169659 2.613175,29.738108 2.844931,29.161373 
	C7.639134,17.230759 15.621432,8.415182 27.633060,3.412119 
	C28.590784,3.013209 29.218777,1.822660 30.000000,1.000000 
	C38.354233,1.000000 46.708466,1.000000 55.693218,1.297470 
	C59.210438,3.192920 62.167831,4.676400 64.972191,6.407750 
	C81.302422,16.489679 88.300919,31.450693 85.624466,50.100376 
	C83.108986,67.628357 72.431412,79.281990 55.461273,84.475319 
	C50.527393,85.985222 48.777435,88.304436 48.929146,93.268150 
	C49.203732,102.251869 48.981014,111.250137 49.028076,120.242012 
	C49.037148,121.974770 49.331226,123.706039 49.523170,125.750549 
	C50.814510,125.444969 51.560452,125.477356 52.016655,125.129631 
	C60.982685,118.295372 71.303192,116.869186 82.220116,116.935097 
	C111.360191,117.111031 140.502060,117.015358 169.643158,116.983696 
	C183.662125,116.968460 193.265259,109.193840 196.305756,95.531921 
	C197.977692,88.019363 197.247742,86.757240 189.871872,84.407585 
	C173.248032,79.111893 161.139236,63.864029 159.961517,47.982246 
	C158.304840,25.641520 171.309967,10.040920 186.036758,3.785161 
	C187.489990,3.167856 188.685089,1.942909 190.000000,0.999999 
	C198.020905,1.000000 206.041809,1.000000 214.696960,1.297644 
	C215.830368,2.020070 216.261932,2.613039 216.838669,2.844841 
	C228.768738,7.639656 237.585587,15.620683 242.587952,27.633064 
	C242.986786,28.590778 244.177353,29.218777 245.000000,30.000000 
	C245.000000,38.354233 245.000000,46.708466 245.000000,55.531349 
M32.474754,200.404739 
	C33.230347,200.706100 33.985943,201.007462 35.073376,201.802612 
	C36.427307,202.109558 38.156830,203.110092 39.075230,202.612762 
	C45.887775,198.923660 52.539108,194.936859 60.208252,190.481720 
	C57.745399,188.756424 56.207748,187.679260 55.080654,186.889694 
	C53.848183,189.003998 53.368828,191.017746 52.134075,191.739868 
	C46.554832,195.002808 40.761906,197.900360 34.525021,200.594559 
	C33.768597,200.294891 33.012169,199.995239 32.018673,199.173553 
	C31.817593,197.306610 31.616510,195.439651 31.358101,193.040436 
	C29.709080,193.948502 27.882172,194.954514 24.849636,196.624420 
	C28.018463,198.160889 29.986458,199.115112 32.474754,200.404739 
M12.043010,43.457443 
	C13.581090,66.265884 33.638592,80.280792 53.984554,72.810883 
	C74.506340,65.276421 83.493126,38.375721 64.419220,20.343451 
	C55.182884,11.611509 43.582226,9.476363 31.458502,14.732285 
	C19.342068,19.985044 12.911825,29.384583 12.043010,43.457443 
M178.385483,63.098660 
	C186.337784,73.309158 200.657959,77.305290 212.963516,72.818268 
	C224.698807,68.539185 231.518051,59.961155 233.581726,47.953239 
	C235.474106,36.942219 231.461182,27.338247 223.274048,20.124735 
	C210.740616,9.081768 192.582260,9.257665 181.002792,20.804987 
	C170.364746,31.413473 166.642075,47.275150 178.385483,63.098660 
M17.985950,184.527313 
	C9.497010,197.497269 10.059833,210.622559 19.630196,222.871277 
	C27.040588,232.355545 41.517776,236.210938 53.609940,231.920395 
	C66.016281,227.518372 74.504013,216.116470 74.930527,203.279617 
	C75.321732,191.505356 67.381355,178.951630 56.350189,174.292099 
	C54.967522,173.708054 53.113636,174.239548 51.478085,174.254181 
	C52.125141,175.991638 52.292915,178.280807 53.521870,179.348419 
	C55.873299,181.391098 58.927277,182.598953 61.502186,184.418594 
	C63.636887,185.927170 66.960617,187.625961 67.215622,189.573349 
	C68.006302,195.611618 68.364494,201.953018 67.266815,207.875854 
	C66.799980,210.394852 62.382133,212.281998 59.609035,214.243011 
	C57.169434,215.968185 54.533909,217.420105 51.960201,218.951172 
	C37.369064,227.631256 37.366360,227.627319 22.901430,218.863266 
	C22.474771,218.604767 22.003679,218.383911 21.652452,218.043274 
	C20.595184,217.017944 18.757381,215.987259 18.696903,214.878342 
	C18.354298,208.596420 17.605957,202.131256 18.765413,196.066788 
	C19.279812,193.376282 23.929543,191.460114 26.731148,189.228867 
	C28.642233,187.706863 32.043755,186.441040 32.273838,184.724823 
	C32.979126,179.464142 36.529766,177.616943 40.444344,175.627121 
	C42.396862,174.634628 44.160175,173.269913 46.009071,172.073578 
	C34.614250,171.422897 25.184320,174.763336 17.985950,184.527313 
M63.752903,203.818375 
	C63.822296,202.990417 63.947186,202.162781 63.952168,201.334427 
	C63.987118,195.522263 63.171642,195.036499 58.118488,197.869873 
	C53.914219,200.227234 49.672482,202.523956 45.541443,205.004257 
	C39.592850,208.575806 38.746414,211.175613 41.176479,218.891968 
	C48.939110,214.392700 57.272079,211.190094 63.752903,203.818375 
M25.848141,214.541061 
	C28.524761,215.963226 31.201380,217.385376 34.054977,218.901566 
	C36.409260,208.805603 32.710011,203.771317 22.467318,202.643906 
	C22.177027,206.815170 20.401630,211.115051 25.848141,214.541061 
M38.454407,191.691422 
	C43.354504,192.603500 46.314991,189.595032 45.908108,183.924225 
	C45.820976,182.709854 45.315865,180.679840 44.664207,180.533279 
	C43.429863,180.255661 41.030956,180.717987 40.733868,181.493073 
	C39.559891,184.555908 39.012928,187.859100 38.454407,191.691422 
M51.600674,184.944458 
	C51.600674,184.944458 51.597260,185.037537 51.600674,184.944458 
z"/>

</svg>