<svg width="30" height="30" viewBox="0 0 30 30" fill="none" xmlns="http://www.w3.org/2000/svg">
<path d="M13 3C7.489 3 3 7.489 3 13C3 18.511 7.489 23 13 23C15.3965 23 17.5974 22.149 19.3223 20.7363L25.293 26.707C25.3851 26.803 25.4955 26.8796 25.6176 26.9324C25.7397 26.9852 25.8712 27.0131 26.0042 27.0144C26.1373 27.0158 26.2692 26.9906 26.3924 26.9403C26.5156 26.89 26.6275 26.8157 26.7216 26.7216C26.8157 26.6275 26.89 26.5156 26.9403 26.3924C26.9906 26.2692 27.0158 26.1373 27.0144 26.0042C27.0131 25.8712 26.9852 25.7397 26.9324 25.6176C26.8796 25.4955 26.803 25.3851 26.707 25.293L20.7363 19.3223C22.149 17.5974 23 15.3965 23 13C23 7.489 18.511 3 13 3ZM13 5C17.4301 5 21 8.56988 21 13C21 17.4301 17.4301 21 13 21C8.56988 21 5 17.4301 5 13C5 8.56988 8.56988 5 13 5Z" fill="#95F5CB"/>
</svg>
