<svg width="24" height="24" viewBox="0 0 24 24" fill="none" xmlns="http://www.w3.org/2000/svg">
<g id="icons">
<path id="Vector" d="M20.7836 2.39218C20.7538 2.39312 20.7241 2.39573 20.6945 2.39999H15.9992C15.8932 2.39849 15.788 2.41808 15.6896 2.45761C15.5912 2.49714 15.5017 2.55583 15.4262 2.63026C15.3507 2.7047 15.2907 2.7934 15.2498 2.8912C15.2089 2.98901 15.1878 3.09397 15.1878 3.19999C15.1878 3.30601 15.2089 3.41097 15.2498 3.50878C15.2907 3.60659 15.3507 3.69528 15.4262 3.76972C15.5017 3.84416 15.5912 3.90284 15.6896 3.94237C15.788 3.98191 15.8932 4.00149 15.9992 3.99999H18.868L10.6336 12.2344C10.5568 12.3081 10.4955 12.3964 10.4533 12.4941C10.4111 12.5918 10.3887 12.6969 10.3877 12.8034C10.3866 12.9098 10.4067 13.0154 10.447 13.1139C10.4872 13.2125 10.5467 13.302 10.622 13.3772C10.6972 13.4525 10.7867 13.512 10.8853 13.5522C10.9838 13.5925 11.0894 13.6126 11.1958 13.6115C11.3023 13.6105 11.4074 13.5882 11.5051 13.5459C11.6028 13.5037 11.6911 13.4424 11.7648 13.3656L19.9992 5.13124V7.99999C19.9977 8.106 20.0173 8.21125 20.0568 8.30963C20.0964 8.408 20.1551 8.49754 20.2295 8.57303C20.3039 8.64853 20.3926 8.70848 20.4904 8.7494C20.5882 8.79031 20.6932 8.81139 20.7992 8.81139C20.9052 8.81139 21.0102 8.79031 21.108 8.7494C21.2058 8.70848 21.2945 8.64853 21.3689 8.57303C21.4434 8.49754 21.5021 8.408 21.5416 8.30963C21.5811 8.21125 21.6007 8.106 21.5992 7.99999V3.30155C21.6152 3.18637 21.6058 3.06911 21.5718 2.95791C21.5378 2.84672 21.4799 2.74428 21.4023 2.65772C21.3247 2.57116 21.2291 2.50256 21.1222 2.4567C21.0154 2.41084 20.8998 2.38882 20.7836 2.39218ZM4.79922 5.59999C3.92477 5.59999 3.19922 6.32554 3.19922 7.19999V19.2C3.19922 20.0744 3.92477 20.8 4.79922 20.8H16.7992C17.6737 20.8 18.3992 20.0744 18.3992 19.2V11.2V9.13749L16.7992 10.7375V12.8V19.2H4.79922V7.19999H11.1992H12.7992H13.2617L14.8617 5.59999H12.7992H11.1992H4.79922Z" fill="#5F9483"/>
</g>
</svg>
