<svg width="20" height="20" viewBox="0 0 20 20" fill="none" xmlns="http://www.w3.org/2000/svg">
<g id="icons8-pencil (2) 1">
<path id="Vector" d="M15.4297 2.51953C14.9072 2.51953 14.3994 2.72949 14.0039 3.125L13.9453 3.18359L13.5547 2.8125L3.24219 13.125L3.20312 13.3203L2.51953 16.7578L2.32422 17.6758L3.24219 17.4805L6.67969 16.7969L6.875 16.7578L17.1875 6.44531L16.8164 6.07422L16.8555 6.03516L16.875 5.99609C17.666 5.20508 17.666 3.91602 16.875 3.125C16.4795 2.72949 15.9521 2.51953 15.4297 2.51953ZM15.4297 3.75C15.625 3.75 15.8301 3.83789 15.9961 4.00391C16.3306 4.33838 16.3306 4.78272 15.9961 5.11719L15.9375 5.17578L14.8242 4.0625L14.8828 4.00391C15.0488 3.83789 15.2344 3.75 15.4297 3.75ZM13.5742 4.57031L15.4297 6.42578L14.5312 7.34375L12.6562 5.46875L13.5742 4.57031ZM11.7969 6.36719L13.6328 8.20312L7.10938 14.7461L6.85547 13.6133L6.77734 13.2227L6.38672 13.1445L5.25391 12.8906L11.7969 6.36719ZM4.35547 13.9648L5.72266 14.2773L6.03516 15.6445L4.76562 15.8984L4.10156 15.2344L4.35547 13.9648Z" fill="#28343C"/>
</g>
</svg>
