<svg width="30" height="31" viewBox="0 0 30 31" fill="none" xmlns="http://www.w3.org/2000/svg">
<g id="icons">
<path id="Vector" d="M24 4.5H6C4.895 4.5 4 5.395 4 6.5V24.5C4 25.605 4.895 26.5 6 26.5H24C25.105 26.5 26 25.605 26 24.5V6.5C26 5.395 25.105 4.5 24 4.5ZM9 16.5C8.448 16.5 8 16.052 8 15.5C8 14.948 8.448 14.5 9 14.5C9.552 14.5 10 14.948 10 15.5C10 16.052 9.552 16.5 9 16.5ZM21 16.5H13C12.448 16.5 12 16.052 12 15.5C12 14.948 12.448 14.5 13 14.5H21C21.552 14.5 22 14.948 22 15.5C22 16.052 21.552 16.5 21 16.5ZM9 10.5C8.448 10.5 8 10.052 8 9.5C8 8.948 8.448 8.5 9 8.5C9.552 8.5 10 8.948 10 9.5C10 10.052 9.552 10.5 9 10.5ZM21 10.5H13C12.448 10.5 12 10.052 12 9.5C12 8.948 12.448 8.5 13 8.5H21C21.552 8.5 22 8.948 22 9.5C22 10.052 21.552 10.5 21 10.5ZM9 22.5C8.448 22.5 8 22.052 8 21.5C8 20.948 8.448 20.5 9 20.5C9.552 20.5 10 20.948 10 21.5C10 22.052 9.552 22.5 9 22.5ZM21 22.5H13C12.448 22.5 12 22.052 12 21.5C12 20.948 12.448 20.5 13 20.5H21C21.552 20.5 22 20.948 22 21.5C22 22.052 21.552 22.5 21 22.5Z" fill="#28343C"/>
</g>
</svg>
