<svg width="30" height="31" viewBox="0 0 30 31" fill="none" xmlns="http://www.w3.org/2000/svg">
<g id="icons">
<path id="Vector" d="M15 3C8.09625 3 2.5 8.59625 2.5 15.5C2.5 22.4037 8.09625 28 15 28C21.9037 28 27.5 22.4037 27.5 15.5C27.5 8.59625 21.9037 3 15 3ZM18.75 16.75H16.25V19.25C16.25 19.94 15.69 20.5 15 20.5C14.31 20.5 13.75 19.94 13.75 19.25V16.75H11.25C10.56 16.75 10 16.19 10 15.5C10 14.81 10.56 14.25 11.25 14.25H13.75V11.75C13.75 11.06 14.31 10.5 15 10.5C15.69 10.5 16.25 11.06 16.25 11.75V14.25H18.75C19.44 14.25 20 14.81 20 15.5C20 16.19 19.44 16.75 18.75 16.75Z" fill="#28343C"/>
</g>
</svg>
