<svg width="30" height="24" viewBox="0 0 30 24" fill="none" xmlns="http://www.w3.org/2000/svg">
<g id="icons">
<path id="Vector" d="M8.99609 1.58904C8.79945 1.5904 8.60767 1.63812 8.44475 1.72622C8.28182 1.81432 8.15498 1.93889 8.08008 2.08435L5.23047 7.40622L5 7.46716V3.19997C5.00183 3.09294 4.9768 2.9867 4.92638 2.88755C4.87597 2.7884 4.80119 2.69835 4.70649 2.62273C4.61179 2.54712 4.49908 2.48747 4.37504 2.44733C4.25101 2.40719 4.11816 2.38736 3.98438 2.38904C3.7195 2.39235 3.46709 2.4796 3.28254 2.63163C3.09799 2.78367 2.99637 2.98807 3 3.19997V7.99997L2 8.79997H1V13.6L6.20898 15.0672C6.45861 15.154 6.72778 15.1992 7 15.2C7.14254 15.1996 7.28463 15.187 7.42383 15.1625L11.3965 14.5015C11.7875 14.4367 12.1396 14.2659 12.3926 14.0187L14.666 11.7984L14.707 11.7656C14.8915 11.6187 14.9971 11.4201 15.0014 11.2119C15.0058 11.0037 14.9085 10.8024 14.7303 10.6507C14.5521 10.4989 14.3069 10.4088 14.047 10.3993C13.787 10.3898 13.5326 10.4618 13.3379 10.6L11 12H10C8.88333 12 8 11.2933 8 10.4C8 9.50664 8.88333 8.79997 10 8.79997H12.1484L14.375 10.225C14.4776 10.2907 14.5954 10.3396 14.7216 10.3688C14.8478 10.3981 14.98 10.4072 15.1106 10.3956C15.2412 10.384 15.3676 10.352 15.4828 10.3013C15.5979 10.2506 15.6994 10.1822 15.7815 10.1001C15.8636 10.018 15.9246 9.9238 15.9612 9.82282C15.9978 9.72184 16.0091 9.6161 15.9946 9.51161C15.98 9.40713 15.9399 9.30596 15.8765 9.21388C15.8131 9.12181 15.7276 9.04062 15.625 8.97497L13.125 7.37497C12.9476 7.26156 12.7271 7.19984 12.5 7.19997H10.123L14.582 4.65154C14.7551 4.55586 14.886 4.41896 14.9562 4.26032C15.0264 4.10168 15.0323 3.92938 14.973 3.76791C14.9137 3.60645 14.7923 3.46404 14.626 3.36096C14.4598 3.25787 14.2571 3.19935 14.0469 3.19372C13.8214 3.18706 13.5998 3.24158 13.418 3.34841L7.88867 6.50779L9.91992 2.7156C9.98837 2.5931 10.0172 2.4588 10.0038 2.32505C9.99037 2.1913 9.93512 2.06239 9.84312 1.9502C9.75111 1.83801 9.62532 1.74613 9.4773 1.68302C9.32929 1.6199 9.16381 1.58759 8.99609 1.58904ZM23 8.79997C22.8575 8.80035 22.7154 8.81293 22.5762 8.83747C22.5716 8.83798 22.5671 8.8385 22.5625 8.83904L18.6035 9.49841C18.2125 9.56321 17.8604 9.73402 17.6074 9.98122L15.334 12.2015L15.293 12.2343C15.1085 12.3812 15.0029 12.5799 14.9986 12.788C14.9942 12.9962 15.0915 13.1975 15.2697 13.3493C15.4479 13.501 15.6931 13.5912 15.953 13.6006C16.213 13.6101 16.4674 13.5381 16.6621 13.4L19 12H20C21.1167 12 22 12.7066 22 13.6C22 14.4933 21.1167 15.2 20 15.2H17.8516L15.625 13.775C15.5224 13.7093 15.4046 13.6604 15.2784 13.6311C15.1522 13.6018 15.02 13.5927 14.8894 13.6043C14.7588 13.6159 14.6324 13.648 14.5172 13.6987C14.4021 13.7494 14.3006 13.8177 14.2185 13.8998C14.1364 13.9819 14.0754 14.0761 14.0388 14.1771C14.0022 14.2781 13.9909 14.3839 14.0054 14.4883C14.02 14.5928 14.0601 14.694 14.1235 14.7861C14.1869 14.8781 14.2724 14.9593 14.375 15.025L16.875 16.625C17.0525 16.7384 17.2729 16.8001 17.5 16.8H19.877L15.418 19.3484C15.202 19.4719 15.0561 19.659 15.0125 19.8685C14.9689 20.078 15.0312 20.2928 15.1855 20.4656C15.3399 20.6384 15.5738 20.7551 15.8357 20.7899C16.0975 20.8248 16.366 20.775 16.582 20.6515L22.1113 17.4922L20.0801 21.2843C20.0283 21.381 20.0008 21.4849 19.9991 21.59C19.9975 21.6952 20.0218 21.7995 20.0705 21.8972C20.1691 22.0944 20.3615 22.2522 20.6055 22.3359C20.8494 22.4196 21.125 22.4224 21.3715 22.3435C21.618 22.2647 21.8153 22.1108 21.9199 21.9156L24.7715 16.5937L25 16.5328V20.8C24.9981 20.906 25.0226 21.0112 25.072 21.1096C25.1214 21.208 25.1948 21.2975 25.2878 21.373C25.3809 21.4485 25.4918 21.5085 25.614 21.5494C25.7363 21.5903 25.8675 21.6114 26 21.6114C26.1325 21.6114 26.2637 21.5903 26.386 21.5494C26.5082 21.5085 26.6191 21.4485 26.7122 21.373C26.8052 21.2975 26.8786 21.208 26.928 21.1096C26.9774 21.0112 27.0019 20.906 27 20.8V16L28 15.2H29V10.4L23.791 8.93279C23.5414 8.84591 23.2722 8.80072 23 8.79997Z" fill="#5F9483"/>
</g>
</svg>
