<svg width="56" height="54" viewBox="0 0 56 54" fill="none" xmlns="http://www.w3.org/2000/svg">
<path d="M15.9922 0.972773C15.5989 0.976194 15.2153 1.09549 14.8895 1.31573C14.5636 1.53598 14.31 1.8474 14.1602 2.21105L8.46094 15.5157L8 15.6681V5.00012C8.00366 4.73254 7.9536 4.46694 7.85277 4.21906C7.75193 3.97118 7.60239 3.74606 7.41298 3.55701C7.22357 3.36797 6.99816 3.21886 6.75008 3.1185C6.50201 3.01815 6.23632 2.96859 5.96875 2.97277C5.439 2.98105 4.93418 3.19917 4.56507 3.57926C4.19597 3.95935 3.99275 4.47035 4 5.00012V17.0001L2 19.0001H0V31.0001L10.418 34.6681C10.9172 34.8853 11.4556 34.9983 12 35.0001C12.2851 34.9992 12.5693 34.9677 12.8477 34.9064L20.793 33.254C21.575 33.092 22.2792 32.665 22.7852 32.047L27.332 26.4962L27.4141 26.4142C27.783 26.047 27.9942 25.5504 28.0029 25.03C28.0116 24.5095 27.817 24.0062 27.4606 23.6269C27.1042 23.2476 26.6139 23.0221 26.0939 22.9985C25.5739 22.9748 25.0652 23.1547 24.6758 23.5001L20 27.0001H18C15.7667 27.0001 14 25.2334 14 23.0001C14 20.7668 15.7667 19.0001 18 19.0001H22.2969L26.75 22.5626C26.9552 22.7269 27.1907 22.8491 27.4431 22.9223C27.6955 22.9955 27.9599 23.0182 28.2211 22.9892C28.4823 22.9602 28.7353 22.8801 28.9655 22.7533C29.1957 22.6266 29.3988 22.4557 29.5629 22.2505C29.7271 22.0452 29.8493 21.8097 29.9224 21.5572C29.9955 21.3048 30.0182 21.0404 29.9891 20.7792C29.9601 20.518 29.8798 20.2651 29.753 20.0349C29.6262 19.8047 29.4553 19.6017 29.25 19.4376L24.25 15.4376C23.8951 15.1541 23.4543 14.9998 23 15.0001H18.2461L27.1641 8.62902C27.5102 8.38982 27.772 8.04759 27.9124 7.65099C28.0528 7.25439 28.0645 6.82363 27.946 6.41996C27.8274 6.0163 27.5846 5.66029 27.2521 5.40258C26.9196 5.14487 26.5142 4.99857 26.0938 4.98449C25.6429 4.96784 25.1996 5.10413 24.8359 5.37121L13.7773 13.2696L17.8398 3.78918C17.9767 3.48294 18.0344 3.14718 18.0076 2.8128C17.9807 2.47842 17.8702 2.15617 17.6862 1.87569C17.5022 1.59521 17.2506 1.36551 16.9546 1.20772C16.6586 1.04994 16.3276 0.969148 15.9922 0.972773ZM44 19.0001C43.7149 19.0011 43.4307 19.0325 43.1523 19.0939C43.1432 19.0951 43.1341 19.0964 43.125 19.0978L35.207 20.7462C34.425 20.9082 33.7208 21.3352 33.2148 21.9532L28.668 27.504L28.5859 27.5861C28.217 27.9533 28.0058 28.4498 27.9971 28.9703C27.9884 29.4907 28.183 29.994 28.5394 30.3734C28.8958 30.7527 29.3861 30.9781 29.9061 31.0018C30.4261 31.0254 30.9348 30.8455 31.3242 30.5001L36 27.0001H38C40.2333 27.0001 42 28.7668 42 31.0001C42 33.2334 40.2333 35.0001 38 35.0001H33.7031L29.25 31.4376C29.0448 31.2734 28.8093 31.1512 28.5569 31.078C28.3045 31.0048 28.0401 30.982 27.7789 31.011C27.5177 31.04 27.2647 31.1202 27.0345 31.2469C26.8043 31.3737 26.6012 31.5445 26.4371 31.7498C26.2729 31.955 26.1507 32.1906 26.0776 32.443C26.0045 32.6954 25.9818 32.9598 26.0109 33.221C26.0399 33.4822 26.1202 33.7351 26.247 33.9653C26.3738 34.1955 26.5447 34.3985 26.75 34.5626L31.75 38.5626C32.1049 38.8462 32.5457 39.0005 33 39.0001H37.7539L28.8359 45.3712C28.4039 45.6799 28.1122 46.1476 28.0251 46.6714C27.9379 47.1952 28.0624 47.7322 28.3711 48.1642C28.6798 48.5962 29.1475 48.8879 29.6713 48.975C30.1951 49.0622 30.732 48.9378 31.1641 48.629L42.2227 40.7306L38.1602 50.2111C38.0565 50.4527 38.0015 50.7123 37.9982 50.9752C37.995 51.2381 38.0435 51.499 38.1411 51.7431C38.3381 52.2361 38.723 52.6307 39.2109 52.84C39.6989 53.0492 40.25 53.0561 40.743 52.859C41.236 52.662 41.6306 52.2771 41.8398 51.7892L47.543 38.4845L48 38.3321V49.0001C47.9963 49.2651 48.0452 49.5283 48.144 49.7742C48.2429 50.0201 48.3896 50.244 48.5757 50.4327C48.7618 50.6215 48.9835 50.7713 49.228 50.8736C49.4725 50.9759 49.735 51.0286 50 51.0286C50.265 51.0286 50.5275 50.9759 50.772 50.8736C51.0165 50.7713 51.2382 50.6215 51.4243 50.4327C51.6104 50.244 51.7571 50.0201 51.856 49.7742C51.9548 49.5283 52.0037 49.2651 52 49.0001V37.0001L54 35.0001H56V23.0001L45.582 19.3321C45.0828 19.115 44.5444 19.002 44 19.0001Z" fill="#95F5CB"/>
</svg>
