<svg width="44" height="50" viewBox="0 0 44 50" fill="none" xmlns="http://www.w3.org/2000/svg">
<path d="M22 0.000200015C21.735 -0.00354808 21.4719 0.0454145 21.2259 0.144242C20.98 0.24307 20.7561 0.389791 20.5674 0.57588C20.3787 0.761969 20.2288 0.983714 20.1265 1.22823C20.0242 1.47274 19.9715 1.73515 19.9715 2.0002C19.9715 2.26525 20.0242 2.52766 20.1265 2.77217C20.2288 3.01669 20.3787 3.23843 20.5674 3.42452C20.7561 3.61061 20.98 3.75733 21.2259 3.85616C21.4719 3.95499 21.735 4.00395 22 4.0002C31.9652 4.0002 40 12.035 40 22.0002C39.9963 22.2652 40.0452 22.5283 40.144 22.7743C40.2429 23.0202 40.3896 23.2441 40.5757 23.4328C40.7618 23.6215 40.9835 23.7714 41.228 23.8737C41.4725 23.976 41.735 24.0287 42 24.0287C42.265 24.0287 42.5275 23.976 42.772 23.8737C43.0165 23.7714 43.2382 23.6215 43.4243 23.4328C43.6104 23.2441 43.7571 23.0202 43.856 22.7743C43.9548 22.5283 44.0037 22.2652 44 22.0002C44 9.87339 34.1268 0.000200015 22 0.000200015ZM22 8.0002C14.2913 8.0002 8 14.2915 8 22.0002C7.99625 22.2652 8.04521 22.5283 8.14404 22.7743C8.24287 23.0202 8.38959 23.2441 8.57568 23.4328C8.76177 23.6215 8.98351 23.7714 9.22803 23.8737C9.47254 23.976 9.73495 24.0287 10 24.0287C10.265 24.0287 10.5275 23.976 10.772 23.8737C11.0165 23.7714 11.2382 23.6215 11.4243 23.4328C11.6104 23.2441 11.7571 23.0202 11.856 22.7743C11.9548 22.5283 12.0037 22.2652 12 22.0002C12 16.4529 16.4527 12.0002 22 12.0002C27.5473 12.0002 32 16.4529 32 22.0002C32 25.6669 31.1513 27.7249 30.2109 29.6057C29.2706 31.4864 28 33.3335 28 36.0002C28 39.3372 25.337 42.0002 22 42.0002C21.735 41.9964 21.4719 42.0454 21.2259 42.1442C20.98 42.2431 20.7561 42.3898 20.5674 42.5759C20.3787 42.762 20.2288 42.9837 20.1265 43.2282C20.0242 43.4727 19.9715 43.7351 19.9715 44.0002C19.9715 44.2652 20.0242 44.5277 20.1265 44.7722C20.2288 45.0167 20.3787 45.2384 20.5674 45.4245C20.7561 45.6106 20.98 45.7573 21.2259 45.8562C21.4719 45.955 21.735 46.0039 22 46.0002C27.499 46.0002 32 41.4992 32 36.0002C32 34.6669 32.7294 33.514 33.7891 31.3947C34.8487 29.2755 36 26.3335 36 22.0002C36 14.2915 29.7087 8.0002 22 8.0002ZM22 16.0002C18.7101 16.0002 16 18.7103 16 22.0002C15.9963 22.2652 16.0452 22.5283 16.144 22.7743C16.2429 23.0202 16.3896 23.2441 16.5757 23.4328C16.7618 23.6215 16.9835 23.7714 17.228 23.8737C17.4725 23.976 17.7349 24.0287 18 24.0287C18.2651 24.0287 18.5275 23.976 18.772 23.8737C19.0165 23.7714 19.2382 23.6215 19.4243 23.4328C19.6104 23.2441 19.7571 23.0202 19.856 22.7743C19.9548 22.5283 20.0037 22.2652 20 22.0002C20 20.8701 20.8699 20.0002 22 20.0002C23.1301 20.0002 24 20.8701 24 22.0002C23.9963 22.2652 24.0452 22.5283 24.144 22.7743C24.2429 23.0202 24.3896 23.2441 24.5757 23.4328C24.7618 23.6215 24.9835 23.7714 25.228 23.8737C25.4725 23.976 25.7349 24.0287 26 24.0287C26.2651 24.0287 26.5275 23.976 26.772 23.8737C27.0165 23.7714 27.2382 23.6215 27.4243 23.4328C27.6104 23.2441 27.7571 23.0202 27.856 22.7743C27.9548 22.5283 28.0037 22.2652 28 22.0002C28 18.7103 25.2899 16.0002 22 16.0002ZM20 28.0002C19.4696 28.0002 18.9609 28.2109 18.5858 28.586C18.2107 28.9611 18 29.4698 18 30.0002C18 30.5306 18.2107 31.0393 18.5858 31.4144C18.9609 31.7895 19.4696 32.0002 20 32.0002C20.5304 32.0002 21.0391 31.7895 21.4142 31.4144C21.7893 31.0393 22 30.5306 22 30.0002C22 29.4698 21.7893 28.9611 21.4142 28.586C21.0391 28.2109 20.5304 28.0002 20 28.0002ZM12 32.0002C11.4882 32.0002 10.9759 32.1951 10.5859 32.5861C9.80394 33.3681 9.80394 34.6343 10.5859 35.4143L14.5859 39.4143C15.3679 40.1963 16.6341 40.1963 17.4141 39.4143C18.1961 38.6343 18.1961 37.3661 17.4141 36.5861L13.4141 32.5861C13.0231 32.1951 12.5118 32.0002 12 32.0002ZM8 40.0002C7.46957 40.0002 6.96086 40.2109 6.58579 40.586C6.21071 40.9611 6 41.4698 6 42.0002C6 42.5306 6.21071 43.0393 6.58579 43.4144C6.96086 43.7895 7.46957 44.0002 8 44.0002C8.53043 44.0002 9.03914 43.7895 9.41421 43.4144C9.78929 43.0393 10 42.5306 10 42.0002C10 41.4698 9.78929 40.9611 9.41421 40.586C9.03914 40.2109 8.53043 40.0002 8 40.0002ZM2 46.0002C1.46957 46.0002 0.96086 46.2109 0.585787 46.586C0.210714 46.9611 0 47.4698 0 48.0002C0 48.5306 0.210714 49.0393 0.585787 49.4144C0.96086 49.7895 1.46957 50.0002 2 50.0002C2.53043 50.0002 3.03914 49.7895 3.41421 49.4144C3.78929 49.0393 4 48.5306 4 48.0002C4 47.4698 3.78929 46.9611 3.41421 46.586C3.03914 46.2109 2.53043 46.0002 2 46.0002Z" fill="#95F5CB"/>
</svg>
