<svg width="30" height="30" viewBox="0 0 30 30" fill="none" xmlns="http://www.w3.org/2000/svg">
<g clip-path="url(#clip0_369_5114)">
<path d="M24.5 4H6.5C5.395 4 4.5 4.895 4.5 6V24C4.5 25.105 5.395 26 6.5 26H24.5C25.605 26 26.5 25.105 26.5 24V6C26.5 4.895 25.605 4 24.5 4ZM17.5 20H9.5C8.948 20 8.5 19.552 8.5 19C8.5 18.448 8.948 18 9.5 18H17.5C18.052 18 18.5 18.448 18.5 19C18.5 19.552 18.052 20 17.5 20ZM21.5 16H9.5C8.948 16 8.5 15.552 8.5 15C8.5 14.448 8.948 14 9.5 14H21.5C22.052 14 22.5 14.448 22.5 15C22.5 15.552 22.052 16 21.5 16ZM21.5 12H9.5C8.948 12 8.5 11.552 8.5 11C8.5 10.448 8.948 10 9.5 10H21.5C22.052 10 22.5 10.448 22.5 11C22.5 11.552 22.052 12 21.5 12Z" fill="#95F5CB"/>
</g>
<defs>
<clipPath id="clip0_369_5114">
<rect width="30" height="30" fill="white"/>
</clipPath>
</defs>
</svg>
